<svg xmlns="http://www.w3.org/2000/svg" viewBox="0 0 250 250"><defs><style>.cls-1{fill:#f0eeeb;}.cls-2{opacity:0.35;}.cls-3{fill:none;}.cls-4{fill:#5b5b5b;}</style></defs><g id="圖層_2" data-name="圖層 2"><g id="圖層_15" data-name="圖層 15"><rect class="cls-1" width="250" height="250"/></g><g id="圖層_16" data-name="圖層 16"><g class="cls-2"><path class="cls-3" d="M249.75,249.75V245H250V213.7h-.25v-5.12H245v-.5h4.75v-4.82H250V172h-.25v-5H245v-.5h4.75v-4.9H250v-31.3h-.25v-5H245v-.5h4.75v-5H250V88.48h-.25v-4.9H245v-.5h4.75V78H250V46.74h-.25V41.92H245v-.5h4.75V36.3H250V5h-.25V.25H245V0H213.7V.25h-5.12V5h-.5V.25h-4.82V0H172V.25h-5V5h-.5V.25h-4.9V0h-31.3V.25h-5V5h-.5V.25h-5V0H88.48V.25h-4.9V5h-.5V.25H78V0H46.74V.25H41.92V5h-.5V.25H36.3V0H5V.25H.25V5H0V36.3H.25v5.12H5v.5H.25v4.82H0V78H.25v5H5v.5H.25v4.9H0v31.3H.25v5H5v.5H.25v5H0v31.3H.25v4.9H5v.5H.25v5H0v31.3H.25v4.82H5v.5H.25v5.12H0V245H.25v4.75H5V250H36.3v-.25h5.12V245h.5v4.75h4.82V250H78v-.25h5V245h.5v4.75h4.9V250h31.3v-.25h5V245h.5v4.75h5V250h31.3v-.25h4.9V245h.5v4.75h5V250h31.3v-.25h4.82V245h.5v4.75h5.12V250H245v-.25Zm-203-41.17H41.92v5.12h-.5v-5.12H36.3v-.5h5.12v-4.82h.5v4.82h4.82Zm0-41.66H41.92v5h-.5v-5H36.3v-.5h5.12v-4.9h.5v4.9h4.82Zm0-41.67H41.92v5h-.5v-5H36.3v-.5h5.12v-5h.5v5h4.82Zm0-41.67H41.92v4.9h-.5v-4.9H36.3v-.5h5.12V78h.5v5h4.82Zm0-41.66H41.92v4.82h-.5V41.92H36.3v-.5h5.12V36.3h.5v5.12h4.82ZM88.48,208.58h-4.9v5.12h-.5v-5.12H78v-.5h5v-4.82h.5v4.82h4.9Zm0-41.66h-4.9v5h-.5v-5H78v-.5h5v-4.9h.5v4.9h4.9Zm0-41.67h-4.9v5h-.5v-5H78v-.5h5v-5h.5v5h4.9Zm0-41.67h-4.9v4.9h-.5v-4.9H78v-.5h5V78h.5v5h4.9Zm0-41.66h-4.9v4.82h-.5V41.92H78v-.5h5V36.3h.5v5.12h4.9Zm41.74,166.66h-5v5.12h-.5v-5.12h-5v-.5h5v-4.82h.5v4.82h5Zm0-41.66h-5v5h-.5v-5h-5v-.5h5v-4.9h.5v4.9h5Zm0-41.67h-5v5h-.5v-5h-5v-.5h5v-5h.5v5h5Zm0-41.67h-5v4.9h-.5v-4.9h-5v-.5h5V78h.5v5h5Zm0-41.66h-5v4.82h-.5V41.92h-5v-.5h5V36.3h.5v5.12h5ZM172,208.58h-5v5.12h-.5v-5.12h-4.9v-.5h4.9v-4.82h.5v4.82h5Zm0-41.66h-5v5h-.5v-5h-4.9v-.5h4.9v-4.9h.5v4.9h5Zm0-41.67h-5v5h-.5v-5h-4.9v-.5h4.9v-5h.5v5h5Zm0-41.67h-5v4.9h-.5v-4.9h-4.9v-.5h4.9V78h.5v5h5Zm0-41.66h-5v4.82h-.5V41.92h-4.9v-.5h4.9V36.3h.5v5.12h5ZM213.7,208.58h-5.12v5.12h-.5v-5.12h-4.82v-.5h4.82v-4.82h.5v4.82h5.12Zm0-41.66h-5.12v5h-.5v-5h-4.82v-.5h4.82v-4.9h.5v4.9h5.12Zm0-41.67h-5.12v5h-.5v-5h-4.82v-.5h4.82v-5h.5v5h5.12Zm0-41.67h-5.12v4.9h-.5v-4.9h-4.82v-.5h4.82V78h.5v5h5.12Zm0-41.66h-5.12v4.82h-.5V41.92h-4.82v-.5h4.82V36.3h.5v5.12h5.12Z"/><rect class="cls-4" x="245" width="4.75" height="0.25"/><rect class="cls-4" x="83.58" width="4.89" height="0.25"/><rect class="cls-4" x="119.78" width="4.97" height="0.25"/><rect class="cls-4" x="36.3" width="5.11" height="0.25"/><rect class="cls-4" x="78.04" width="5.04" height="0.25"/><rect class="cls-4" x="203.26" width="4.82" height="0.25"/><rect class="cls-4" x="125.25" width="4.97" height="0.25"/><rect class="cls-4" x="208.58" width="5.11" height="0.25"/><rect class="cls-4" x="166.92" width="5.04" height="0.25"/><rect class="cls-4" x="161.52" width="4.9" height="0.25"/><rect class="cls-4" x="41.92" width="4.82" height="0.25"/><rect class="cls-4" x="0.25" width="4.75" height="0.25"/><rect class="cls-4" x="245" y="41.42" width="4.75" height="0.5"/><rect class="cls-4" x="119.78" y="41.42" width="4.97" height="0.5"/><rect class="cls-4" x="36.3" y="41.42" width="5.11" height="0.5"/><rect class="cls-4" x="83.58" y="41.42" width="4.89" height="0.5"/><rect class="cls-4" x="125.25" y="41.42" width="4.97" height="0.5"/><rect class="cls-4" x="208.58" y="41.42" width="5.11" height="0.5"/><rect class="cls-4" x="166.92" y="41.42" width="5.04" height="0.5"/><rect class="cls-4" x="78.04" y="41.42" width="5.04" height="0.5"/><rect class="cls-4" x="203.26" y="41.42" width="4.82" height="0.5"/><rect class="cls-4" x="41.92" y="41.42" width="4.82" height="0.5"/><rect class="cls-4" x="161.52" y="41.42" width="4.9" height="0.5"/><rect class="cls-4" x="0.25" y="41.42" width="4.75" height="0.5"/><rect class="cls-4" x="245" y="83.08" width="4.75" height="0.5"/><rect class="cls-4" x="36.3" y="83.08" width="5.11" height="0.5"/><rect class="cls-4" x="83.58" y="83.08" width="4.89" height="0.5"/><rect class="cls-4" x="119.78" y="83.08" width="4.97" height="0.5"/><rect class="cls-4" x="161.52" y="83.08" width="4.9" height="0.5"/><rect class="cls-4" x="41.92" y="83.08" width="4.82" height="0.5"/><rect class="cls-4" x="125.25" y="83.08" width="4.97" height="0.5"/><rect class="cls-4" x="78.04" y="83.08" width="5.04" height="0.5"/><rect class="cls-4" x="166.92" y="83.08" width="5.04" height="0.5"/><rect class="cls-4" x="203.26" y="83.08" width="4.82" height="0.5"/><rect class="cls-4" x="208.58" y="83.08" width="5.11" height="0.5"/><rect class="cls-4" x="0.25" y="83.08" width="4.75" height="0.5"/><rect class="cls-4" x="245" y="124.75" width="4.75" height="0.5"/><rect class="cls-4" x="83.58" y="124.75" width="4.89" height="0.5"/><rect class="cls-4" x="166.92" y="124.75" width="5.04" height="0.5"/><rect class="cls-4" x="161.52" y="124.75" width="4.9" height="0.5"/><rect class="cls-4" x="41.92" y="124.75" width="4.82" height="0.5"/><rect class="cls-4" x="36.3" y="124.75" width="5.11" height="0.5"/><rect class="cls-4" x="125.25" y="124.75" width="4.97" height="0.5"/><rect class="cls-4" x="119.78" y="124.75" width="4.97" height="0.5"/><rect class="cls-4" x="78.04" y="124.75" width="5.04" height="0.5"/><rect class="cls-4" x="203.26" y="124.75" width="4.82" height="0.5"/><rect class="cls-4" x="208.58" y="124.75" width="5.11" height="0.5"/><rect class="cls-4" x="0.25" y="124.75" width="4.75" height="0.5"/><rect class="cls-4" x="245" y="166.42" width="4.75" height="0.5"/><rect class="cls-4" x="203.26" y="166.42" width="4.82" height="0.5"/><rect class="cls-4" x="125.25" y="166.42" width="4.97" height="0.5"/><rect class="cls-4" x="83.58" y="166.42" width="4.89" height="0.5"/><rect class="cls-4" x="208.58" y="166.42" width="5.11" height="0.5"/><rect class="cls-4" x="161.52" y="166.42" width="4.9" height="0.5"/><rect class="cls-4" x="166.92" y="166.42" width="5.04" height="0.5"/><rect class="cls-4" x="119.78" y="166.42" width="4.97" height="0.5"/><rect class="cls-4" x="41.92" y="166.42" width="4.82" height="0.5"/><rect class="cls-4" x="36.3" y="166.42" width="5.11" height="0.5"/><rect class="cls-4" x="78.04" y="166.42" width="5.04" height="0.5"/><rect class="cls-4" x="0.25" y="166.42" width="4.75" height="0.5"/><rect class="cls-4" x="245" y="208.08" width="4.75" height="0.5"/><rect class="cls-4" x="119.78" y="208.08" width="4.97" height="0.5"/><rect class="cls-4" x="166.92" y="208.08" width="5.04" height="0.5"/><rect class="cls-4" x="36.3" y="208.08" width="5.11" height="0.5"/><rect class="cls-4" x="161.52" y="208.08" width="4.9" height="0.5"/><rect class="cls-4" x="78.04" y="208.08" width="5.04" height="0.5"/><rect class="cls-4" x="125.25" y="208.08" width="4.97" height="0.5"/><rect class="cls-4" x="208.58" y="208.08" width="5.11" height="0.5"/><rect class="cls-4" x="41.92" y="208.08" width="4.82" height="0.5"/><rect class="cls-4" x="203.26" y="208.08" width="4.82" height="0.5"/><rect class="cls-4" x="83.58" y="208.08" width="4.89" height="0.5"/><rect class="cls-4" x="0.25" y="208.08" width="4.75" height="0.5"/><rect class="cls-4" x="245" y="249.75" width="4.75" height="0.25"/><rect class="cls-4" x="125.25" y="249.75" width="4.97" height="0.25"/><rect class="cls-4" x="161.52" y="249.75" width="4.9" height="0.25"/><rect class="cls-4" x="119.78" y="249.75" width="4.97" height="0.25"/><rect class="cls-4" x="203.26" y="249.75" width="4.82" height="0.25"/><rect class="cls-4" x="78.04" y="249.75" width="5.04" height="0.25"/><rect class="cls-4" x="83.58" y="249.75" width="4.89" height="0.25"/><rect class="cls-4" x="41.92" y="249.75" width="4.82" height="0.25"/><rect class="cls-4" x="166.92" y="249.75" width="5.04" height="0.25"/><rect class="cls-4" x="208.58" y="249.75" width="5.11" height="0.25"/><rect class="cls-4" x="36.3" y="249.75" width="5.11" height="0.25"/><rect class="cls-4" x="0.25" y="249.75" width="4.75" height="0.25"/><polygon class="cls-4" points="250 245 249.75 245 249.75 249.75 249.75 250 250 250 250 249.75 250 245"/><polygon class="cls-4" points="249.75 41.42 249.75 41.92 249.75 46.74 250 46.74 250 41.92 250 41.42 250 36.3 249.75 36.3 249.75 41.42"/><polygon class="cls-4" points="249.75 83.08 249.75 83.58 249.75 88.48 250 88.48 250 83.58 250 83.08 250 78.04 249.75 78.04 249.75 83.08"/><polygon class="cls-4" points="249.75 124.75 249.75 125.25 249.75 130.22 250 130.22 250 125.25 250 124.75 250 119.78 249.75 119.78 249.75 124.75"/><polygon class="cls-4" points="249.75 208.08 249.75 208.58 249.75 213.69 250 213.69 250 208.58 250 208.08 250 203.26 249.75 203.26 249.75 208.08"/><polygon class="cls-4" points="249.75 166.42 249.75 166.92 249.75 171.96 250 171.96 250 166.92 250 166.42 250 161.52 249.75 161.52 249.75 166.42"/><polygon class="cls-4" points="249.75 5 250 5 250 0.25 250 0 249.75 0 249.75 0.25 249.75 5"/><polygon class="cls-4" points="208.58 245 208.08 245 208.08 249.75 208.08 250 208.58 250 208.58 249.75 208.58 245"/><polygon class="cls-4" points="208.58 78.04 208.08 78.04 208.08 83.08 208.08 83.58 208.08 88.48 208.58 88.48 208.58 83.58 208.58 83.08 208.58 78.04"/><polygon class="cls-4" points="208.58 161.52 208.08 161.52 208.08 166.42 208.08 166.92 208.08 171.96 208.58 171.96 208.58 166.92 208.58 166.42 208.58 161.52"/><polygon class="cls-4" points="208.58 36.3 208.08 36.3 208.08 41.42 208.08 41.92 208.08 46.74 208.58 46.74 208.58 41.92 208.58 41.42 208.58 36.3"/><polygon class="cls-4" points="208.58 203.26 208.08 203.26 208.08 208.08 208.08 208.58 208.08 213.69 208.58 213.69 208.58 208.58 208.58 208.08 208.58 203.26"/><polygon class="cls-4" points="208.58 119.78 208.08 119.78 208.08 124.75 208.08 125.25 208.08 130.22 208.58 130.22 208.58 125.25 208.58 124.75 208.58 119.78"/><polygon class="cls-4" points="208.08 5 208.58 5 208.58 0.25 208.58 0 208.08 0 208.08 0.25 208.08 5"/><polygon class="cls-4" points="166.92 245 166.42 245 166.42 249.75 166.42 250 166.92 250 166.92 249.75 166.92 245"/><polygon class="cls-4" points="166.92 161.52 166.42 161.52 166.42 166.42 166.42 166.92 166.42 171.96 166.92 171.96 166.92 166.92 166.92 166.42 166.92 161.52"/><polygon class="cls-4" points="166.92 119.78 166.42 119.78 166.42 124.75 166.42 125.25 166.42 130.22 166.92 130.22 166.92 125.25 166.92 124.75 166.92 119.78"/><polygon class="cls-4" points="166.92 78.04 166.42 78.04 166.42 83.08 166.42 83.58 166.42 88.48 166.92 88.48 166.92 83.58 166.92 83.08 166.92 78.04"/><polygon class="cls-4" points="166.92 36.3 166.42 36.3 166.42 41.42 166.42 41.92 166.42 46.74 166.92 46.74 166.92 41.92 166.92 41.42 166.92 36.3"/><polygon class="cls-4" points="166.92 203.26 166.42 203.26 166.42 208.08 166.42 208.58 166.42 213.69 166.92 213.69 166.92 208.58 166.92 208.08 166.92 203.26"/><polygon class="cls-4" points="166.42 5 166.92 5 166.92 0.25 166.92 0 166.42 0 166.42 0.25 166.42 5"/><polygon class="cls-4" points="125.25 245 124.75 245 124.75 249.75 124.75 250 125.25 250 125.25 249.75 125.25 245"/><polygon class="cls-4" points="125.25 119.78 124.75 119.78 124.75 124.75 124.75 125.25 124.75 130.22 125.25 130.22 125.25 125.25 125.25 124.75 125.25 119.78"/><polygon class="cls-4" points="125.25 36.3 124.75 36.3 124.75 41.42 124.75 41.92 124.75 46.74 125.25 46.74 125.25 41.92 125.25 41.42 125.25 36.3"/><polygon class="cls-4" points="125.25 78.04 124.75 78.04 124.75 83.08 124.75 83.58 124.75 88.48 125.25 88.48 125.25 83.58 125.25 83.08 125.25 78.04"/><polygon class="cls-4" points="125.25 161.52 124.75 161.52 124.75 166.42 124.75 166.92 124.75 171.96 125.25 171.96 125.25 166.92 125.25 166.42 125.25 161.52"/><polygon class="cls-4" points="125.25 203.26 124.75 203.26 124.75 208.08 124.75 208.58 124.75 213.69 125.25 213.69 125.25 208.58 125.25 208.08 125.25 203.26"/><polygon class="cls-4" points="124.75 5 125.25 5 125.25 0.25 125.25 0 124.75 0 124.75 0.25 124.75 5"/><polygon class="cls-4" points="83.58 245 83.08 245 83.08 249.75 83.08 250 83.58 250 83.58 249.75 83.58 245"/><polygon class="cls-4" points="83.58 161.52 83.08 161.52 83.08 166.42 83.08 166.92 83.08 171.96 83.58 171.96 83.58 166.92 83.58 166.42 83.58 161.52"/><polygon class="cls-4" points="83.58 119.78 83.08 119.78 83.08 124.75 83.08 125.25 83.08 130.22 83.58 130.22 83.58 125.25 83.58 124.75 83.58 119.78"/><polygon class="cls-4" points="83.58 203.26 83.08 203.26 83.08 208.08 83.08 208.58 83.08 213.69 83.58 213.69 83.58 208.58 83.58 208.08 83.58 203.26"/><polygon class="cls-4" points="83.58 36.3 83.08 36.3 83.08 41.42 83.08 41.92 83.08 46.74 83.58 46.74 83.58 41.92 83.58 41.42 83.58 36.3"/><polygon class="cls-4" points="83.58 78.04 83.08 78.04 83.08 83.08 83.08 83.58 83.08 88.48 83.58 88.48 83.58 83.58 83.58 83.08 83.58 78.04"/><polygon class="cls-4" points="83.08 5 83.58 5 83.58 0.25 83.58 0 83.08 0 83.08 0.25 83.08 5"/><polygon class="cls-4" points="41.92 245 41.42 245 41.42 249.75 41.42 250 41.92 250 41.92 249.75 41.92 245"/><polygon class="cls-4" points="41.92 78.04 41.42 78.04 41.42 83.08 41.42 83.58 41.42 88.48 41.92 88.48 41.92 83.58 41.92 83.08 41.92 78.04"/><polygon class="cls-4" points="41.92 161.52 41.42 161.52 41.42 166.42 41.42 166.92 41.42 171.96 41.92 171.96 41.92 166.92 41.92 166.42 41.92 161.52"/><polygon class="cls-4" points="41.92 203.26 41.42 203.26 41.42 208.08 41.42 208.58 41.42 213.69 41.92 213.69 41.92 208.58 41.92 208.08 41.92 203.26"/><polygon class="cls-4" points="41.92 36.3 41.42 36.3 41.42 41.42 41.42 41.92 41.42 46.74 41.92 46.74 41.92 41.92 41.92 41.42 41.92 36.3"/><polygon class="cls-4" points="41.92 119.78 41.42 119.78 41.42 124.75 41.42 125.25 41.42 130.22 41.92 130.22 41.92 125.25 41.92 124.75 41.92 119.78"/><polygon class="cls-4" points="41.42 5 41.92 5 41.92 0.25 41.92 0 41.42 0 41.42 0.25 41.42 5"/><polygon class="cls-4" points="0.25 245 0 245 0 249.75 0 250 0.25 250 0.25 249.75 0.25 245"/><polygon class="cls-4" points="0.25 166.92 0.25 166.42 0.25 161.52 0 161.52 0 166.42 0 166.92 0 171.96 0.25 171.96 0.25 166.92"/><polygon class="cls-4" points="0.25 125.25 0.25 124.75 0.25 119.78 0 119.78 0 124.75 0 125.25 0 130.22 0.25 130.22 0.25 125.25"/><polygon class="cls-4" points="0.25 208.58 0.25 208.08 0.25 203.26 0 203.26 0 208.08 0 208.58 0 213.69 0.25 213.69 0.25 208.58"/><polygon class="cls-4" points="0.25 41.92 0.25 41.42 0.25 36.3 0 36.3 0 41.42 0 41.92 0 46.74 0.25 46.74 0.25 41.92"/><polygon class="cls-4" points="0.25 83.58 0.25 83.08 0.25 78.04 0 78.04 0 83.08 0 83.58 0 88.48 0.25 88.48 0.25 83.58"/><polygon class="cls-4" points="0.25 0.25 0.25 0 0 0 0 0.25 0 5 0.25 5 0.25 0.25"/></g></g></g></svg>