<svg xmlns="http://www.w3.org/2000/svg" viewBox="0 0 105.5 146.05"><defs><style>.cls-1{fill:#a57c55;}.cls-2{fill:#b78a5e;}.cls-3{fill:#ded1c2;}.cls-4{fill:#f7e8d7;}.cls-5{fill:#ebf9d7;}.cls-6{fill:#4eb755;}.cls-7{fill:#8e8e8e;}.cls-8{fill:#bababa;}.cls-9{fill:#33302d;}</style></defs><g id="圖層_2" data-name="圖層 2"><g id="建立訂單"><path class="cls-1" d="M87.82,16.31V127.73a6,6,0,0,1-6,6H6A6,6,0,0,1,.43,130a6.15,6.15,0,0,0,1.43.17H77.68a6,6,0,0,0,6-6V12.69a6,6,0,0,0-.42-2.21A6,6,0,0,1,87.82,16.31Z"/><path class="cls-2" d="M83.68,12.69V124.12a6,6,0,0,1-6,6H1.86A6.15,6.15,0,0,1,.43,130,5.89,5.89,0,0,1,0,127.73V16.31a6,6,0,0,1,6-6H81.82a6.3,6.3,0,0,1,1.44.17A6,6,0,0,1,83.68,12.69Z"/><path class="cls-2" d="M83.68,12.69V124.12a6,6,0,0,1-6,6H1.86A6.15,6.15,0,0,1,.43,130,5.89,5.89,0,0,1,0,127.73V16.31a6,6,0,0,1,6-6H81.82a6.3,6.3,0,0,1,1.44.17A6,6,0,0,1,83.68,12.69Z"/><path class="cls-3" d="M81.82,22.31v99.42a6,6,0,0,1-6,6H12a6,6,0,0,1-5.64-4H69.65a6,6,0,0,0,6-6V18.34a5.94,5.94,0,0,0-.36-2h.53A6,6,0,0,1,81.82,22.31Z"/><path class="cls-4" d="M75.65,18.34v99.43a6,6,0,0,1-6,6H6.36a6,6,0,0,1-.36-2V22.31a6,6,0,0,1,6-6H75.29A5.94,5.94,0,0,1,75.65,18.34Z"/><path class="cls-5" d="M81.42,143.55A21.59,21.59,0,1,1,103,122,21.61,21.61,0,0,1,81.42,143.55Z"/><path class="cls-6" d="M81.42,102.88A19.09,19.09,0,1,1,62.34,122a19.08,19.08,0,0,1,19.08-19.08m0-5A24.09,24.09,0,1,0,105.5,122,24.1,24.1,0,0,0,81.42,97.88Z"/><path class="cls-6" d="M92.42,119.21H84.17V111a2.75,2.75,0,0,0-5.5,0v8.25H70.42a2.75,2.75,0,0,0,0,5.5h8.25V133a2.75,2.75,0,0,0,5.5,0v-8.25h8.25a2.75,2.75,0,0,0,0-5.5Z"/><path class="cls-7" d="M65.8,9.91v6.48a2.12,2.12,0,0,1-2.13,2.12H24.15A2.11,2.11,0,0,1,22,16.42a1.75,1.75,0,0,0,.46,0H62a2.12,2.12,0,0,0,2.13-2.12V7.87A3.61,3.61,0,0,0,64,6.69,3.74,3.74,0,0,1,65.8,9.91Z"/><path class="cls-8" d="M64.15,7.87v6.48A2.12,2.12,0,0,1,62,16.47H22.49a1.75,1.75,0,0,1-.46,0V9.91a3.75,3.75,0,0,1,3.73-3.74h36.3A3.67,3.67,0,0,1,64,6.69,3.61,3.61,0,0,1,64.15,7.87Z"/><path class="cls-8" d="M43.9,0a6.17,6.17,0,1,0,6.18,6.17A6.17,6.17,0,0,0,43.9,0Zm0,10.31A4.14,4.14,0,1,1,48,6.17,4.14,4.14,0,0,1,43.9,10.31Z"/><rect class="cls-9" x="10.61" y="29.36" width="48" height="3" rx="1.5"/><rect class="cls-9" x="10.61" y="96.7" width="57.07" height="3" rx="1.5"/><rect class="cls-9" x="63.15" y="29.36" width="12.26" height="3" rx="1.5"/><rect class="cls-9" x="10.02" y="109.35" width="24" height="3" rx="1.5"/><rect class="cls-9" x="10.61" y="42.73" width="63.3" height="3" rx="1.5"/><rect class="cls-9" x="10.61" y="56.11" width="63.3" height="3" rx="1.5"/><rect class="cls-9" x="10.61" y="69.72" width="33.3" height="3" rx="1.5"/></g></g></svg>