<svg xmlns="http://www.w3.org/2000/svg" viewBox="0 0 582.41 595.63"><defs><style>.cls-1{fill:#e94335;}.cls-2{fill:#34a853;}.cls-3{fill:#4285f3;}.cls-4{fill:#fabb03;}</style></defs><g id="圖層_2" data-name="圖層 2"><g id="圖層_1-2" data-name="圖層 1"><path class="cls-1" d="M31.48,163.94a299.92,299.92,0,0,1,32.2-50.33,292.8,292.8,0,0,1,80.68-72A288,288,0,0,1,253.62,3,298.46,298.46,0,0,1,393.89,16.48c36.77,12.59,69.79,31.84,98.42,58.37,2.56,2.37,2.73,3.74.22,6.19q-34.47,33.6-68.78,67.39c-3.56,3.49-7.16,6.95-10.56,10.6-2.41,2.58-4.2,3.09-7.15.35A156,156,0,0,0,370,134.59c-35.25-17.71-72.1-21.23-110.21-12.14-34.53,8.24-64.14,25.48-89,50.74-17.46,17.75-30.82,38.26-39.12,61.9-.6,1.72-1.37,3.39-2.06,5.08-.84-.53-1.73-1-2.51-1.58q-19.83-15.4-39.63-30.84Q59.47,185.87,31.48,163.94Z"/><path class="cls-2" d="M493.78,523.25c-7.52,7.59-16.28,13.63-25,19.66a293.51,293.51,0,0,1-88,41.34,300.82,300.82,0,0,1-251.89-41.42C87.31,514.27,55,477.33,31.84,432.48a9.79,9.79,0,0,1-.49-1.41c3.84-2.89,7.72-5.72,11.52-8.66Q86.25,388.73,129.61,355c5.83,14,12,27.7,20.26,40.51,17.59,27.39,40.67,48.68,69.83,63,32.49,16,67,21.54,102.85,17,25.69-3.23,49.81-11.39,71.79-25.38,1-.62,2-1.12,3.05-1.67.49.44.95.93,1.47,1.33Q446.32,486.59,493.78,523.25Z"/><path class="cls-3" d="M493.78,523.25q-47.46-36.66-94.92-73.35c-.52-.4-1-.89-1.47-1.33,18.47-12.74,33.94-28.24,44.81-48.08a145.73,145.73,0,0,0,13.3-35.36c1.06-4.32.07-5.7-4.66-5.69-49.13.17-98.25.11-147.37.11-6.56,0-6.56,0-6.56-6.38,0-34.81.06-69.62-.09-104.42,0-3.91,1-5,5-5q135.13.17,270.26,0c3.77,0,5,1.07,5.61,4.85,9.44,56,4.76,110.83-13.53,164.4-13.79,40.39-35.26,76.28-65.81,106.43C496.91,520.8,495.3,522,493.78,523.25Z"/><path class="cls-4" d="M129.61,355q-43.37,33.69-86.74,67.38c-3.8,2.94-7.68,5.77-11.52,8.66C16.68,402.78,7.58,372.69,3.09,341.24A304.15,304.15,0,0,1,13.44,208.66a242.44,242.44,0,0,1,18-44.72q28,21.92,56,43.81,19.79,15.45,39.63,30.84c.78.6,1.67,1,2.51,1.58-3.17,11.66-6.48,23.31-7.81,35.35-2.36,21.42-1.83,42.71,3.67,63.69Q127.56,347.12,129.61,355Z"/></g></g></svg>