<svg xmlns="http://www.w3.org/2000/svg" viewBox="0 0 121.85 108.01"><defs><style>.cls-1{fill:#fff;}.cls-2{fill:#82b1db;}.cls-3{fill:#d8d8d8;}.cls-4{fill:#6b2b2b;}.cls-5{fill:#933a3a;}.cls-6{fill:#3c4247;}</style></defs><g id="圖層_2" data-name="圖層 2"><g id="history"><path class="cls-1" d="M113.86,51a49,49,0,0,1-82.11,36.1A49,49,0,0,1,101,17.9,48.88,48.88,0,0,1,113.86,51Z"/><path class="cls-2" d="M121.85,54A54,54,0,0,1,29.66,92.19C24.77,87.31,70.58,60.47,67.85,54s-54,7.45-54,0a54,54,0,1,1,108,0Z"/><path class="cls-3" d="M116.86,54a49,49,0,0,1-85.11,33.1A49,49,0,0,0,101,17.9,48.91,48.91,0,0,1,116.86,54Z"/><path class="cls-1" d="M113.86,51a49,49,0,0,1-82.11,36.1A49,49,0,0,1,101,17.9,48.88,48.88,0,0,1,113.86,51Z"/><polygon class="cls-4" points="93.94 65.15 92.03 68.89 67.7 58.1 68.58 56.39 91.48 66.56 92.59 64.38 93.94 65.15"/><polygon class="cls-5" points="92.59 64.38 91.48 66.56 68.58 56.39 70.88 51.86 92.59 64.38"/><polygon class="cls-5" points="92.59 64.38 91.48 66.56 68.58 56.39 70.88 51.86 92.59 64.38"/><circle class="cls-6" cx="67.85" cy="54.01" r="6.38" transform="translate(-0.3 107.63) rotate(-76.72)"/><polygon class="cls-6" points="69.26 7.85 70.66 55.12 63.66 55.12 65.06 7.85 69.26 7.85"/><path class="cls-2" d="M31.44,46.05,17.86,59.64a2.5,2.5,0,0,1-3.54,0L.74,46.05a2.49,2.49,0,0,1,1.77-4.26h0a2.48,2.48,0,0,1,1.76.73l10.05,10a2.52,2.52,0,0,0,3.54,0l10.05-10a2.48,2.48,0,0,1,1.76-.73h0A2.49,2.49,0,0,1,31.44,46.05Z"/></g></g></svg>