<svg xmlns="http://www.w3.org/2000/svg" viewBox="0 0 171.22 82.59"><defs><style>.cls-1{fill:#5b3302;}.cls-2{fill:#f23f42;}.cls-3{fill:#fec64f;}.cls-4{fill:#e03134;}.cls-5{fill:#fee24f;}.cls-6{fill:#fdfdfc;}.cls-7{fill:#e3dcdc;}.cls-8{fill:#eaab43;}.cls-9{fill:#f6c5c3;}.cls-10{fill:#428f4b;}.cls-11{fill:#52b25d;}.cls-12{fill:#fcf4cc;}.cls-13{fill:#fbf3ca;}.cls-14{fill:#fbcbcb;}.cls-15{fill:#ecc444;}</style></defs><g id="圖層_2" data-name="圖層 2"><g id="圖層_9" data-name="圖層 9"><path class="cls-1" d="M84.87,82.56c-3.28.09-7.22,0-11.16-.22-4.77-.23-9.53-.57-14.28-1-6.71-.68-13.38-1.62-20-3a112.16,112.16,0,0,1-23.45-7c-4.44-2-8.69-4.28-12.11-7.83a12.84,12.84,0,0,1-3.76-7,10.23,10.23,0,0,1,1.64-7.17,23,23,0,0,1,8.49-7.59,45.49,45.49,0,0,1,6.5-3.28,1.39,1.39,0,0,0,.78-.67,45.82,45.82,0,0,1,5.78-7.59c2.58-2.92,5.35-5.65,8.19-8.31A73.37,73.37,0,0,1,46.06,10.68,78.77,78.77,0,0,1,57.84,5.3,60.27,60.27,0,0,1,67.93,2.7c2-.33,3.85-1,5.8-1.47A58.78,58.78,0,0,1,90.15.14c2.43.14,4.85.3,7.27.51A57.48,57.48,0,0,1,115,4.88a37.62,37.62,0,0,1,9,4.87c1.81,1.43,4,2.2,6,3.24,2.35,1.22,4.9,2,7,3.7a80.63,80.63,0,0,1,7.4,6.17.91.91,0,0,0,1.09.16,10.92,10.92,0,0,1,7.76.06,13.55,13.55,0,0,0,3.55.86c3,.34,4.62,2.38,5.66,5a10.38,10.38,0,0,0,1.63,3.3,6.21,6.21,0,0,1,1.43,5.15c-.06.43.18.6.38.83A6.79,6.79,0,0,1,168,43.51a4.72,4.72,0,0,1-.23,1.35,2.86,2.86,0,0,0,.73,3.09,10.41,10.41,0,0,1,1.16,12.48c-2.18,3.58-5.4,6-8.92,8.05a74,74,0,0,1-16.36,6.76A156,156,0,0,1,124,79.74c-4,.64-8.11,1.13-12.19,1.54-4.38.44-8.76.74-13.15,1S89.91,82.57,84.87,82.56Zm37.7-70.39h0c-.08-.12-.17-.22-.34-.18h0c-.17-.44-.6-.59-1-.81a51.59,51.59,0,0,0-17.84-7A104.42,104.42,0,0,0,87.12,2.66,52.34,52.34,0,0,0,71.56,4.42c-2.26.62-4.48,1.4-6.8,1.8a9.38,9.38,0,0,0-3.24,1.22c-.77.47-1.52,1-1.63,2A5.74,5.74,0,0,0,59.64,11a25.52,25.52,0,0,0,1.8,10c.84,2.25,1.81,4.44,1.87,6.9a28.08,28.08,0,0,1-.41,4.49c-.57,2.34-1.61,4.52-2.29,6.82a7.52,7.52,0,0,0,.78,6.4c3.29,5.19,8.26,7.57,14.2,8.19,3.25.33,6.53.07,9.8.15a11.57,11.57,0,0,1,4.93,1.15c.8.39,1.61.75,2.42,1.12a6.55,6.55,0,0,0,5.51.14,15.91,15.91,0,0,0,8.1-7.58c2.89-5.69,4.79-11.73,6.72-17.78a10.88,10.88,0,0,1,7.6-7.53,19,19,0,0,0,4.61-2.16c1.7-1.09,2-2.2,1.37-4.16a1.9,1.9,0,0,0-.31-.9,13.59,13.59,0,0,0-3.52-4ZM34.69,22.41l-.14.14c-1.85,1.58-3.57,3.29-5.28,5a74.15,74.15,0,0,0-6.12,6.78,19.48,19.48,0,0,0-4,6.11,3.91,3.91,0,0,1-.78,1.22c-.86,1-1.93,1.8-2.87,2.72a13.12,13.12,0,0,0-3,2.82c-1.54,2.11-1.4,3.63.52,5.4a7.44,7.44,0,0,0,.84.64,20.15,20.15,0,0,0,5,2.38,87.57,87.57,0,0,0,12.82,2.74,74.18,74.18,0,0,1,11.44,2.55c3.7,1.27,7.29,2.86,11.06,3.95a98.81,98.81,0,0,0,17,3.38c4.43.49,8.84,1.06,13.31,1.15A184.65,184.65,0,0,0,110.8,68.1a80,80,0,0,0,15.06-3,15,15,0,0,0,4.7-2.3,9.31,9.31,0,0,1,5.24-1.93c1.4-.08,2.81-.12,4.21-.16a67,67,0,0,0,10.49-.81,19.32,19.32,0,0,0,8.4-3.61c2.18-1.67,2.48-3.42,1.14-5.65-.91-1.42-1.84-2.84-2.74-4.26-1.69-2.68-3.09-5.53-4.71-8.26a44.09,44.09,0,0,0-6.89-10c-.12-.13-.15-.39-.42-.34l0,0c0-.16,0-.23-.17-.19h0a5.25,5.25,0,0,0-1.38-1.62,81.43,81.43,0,0,0-8.27-7.14c-1.91-1.54-4.23-2.3-6.57-3.57a8.38,8.38,0,0,1,.7,4.87,5.84,5.84,0,0,1-2.48,3.39,18,18,0,0,1-5.54,2.63,7.1,7.1,0,0,0-4,2.85,18.89,18.89,0,0,0-2.81,5.71c-.76,2.44-1.46,4.91-2.37,7.3-1.17,3.05-2.61,6-4,9a18.45,18.45,0,0,1-5.26,5.86c-2.33,1.64-4.74,3-7.73,2.91A11.06,11.06,0,0,1,91,58.52a14.41,14.41,0,0,0-4.69-1.69c-1-.1-2-.08-3-.09A72.4,72.4,0,0,1,74,56.46a27.33,27.33,0,0,1-6.2-1.79l-.9-.47a18.91,18.91,0,0,1-7-5.8,10.8,10.8,0,0,1-2.21-8.68,34.21,34.21,0,0,1,1.73-5.21c1.3-3.63,1.76-7.25.18-10.95A30.9,30.9,0,0,1,57,11.3a14,14,0,0,1,.8-3.63c-2.31,1.1-4.39,2.09-6.49,3.07A59.06,59.06,0,0,0,37.1,20.28c-.37.28-.8.49-1,.95h0c-.28-.05-.38.17-.49.35h0a.39.39,0,0,0-.33.33h0c-.11,0-.19,0-.17.18v0c-.25,0-.34.19-.47.35Zm123.12,3.82a4.41,4.41,0,0,0-2.74-.43,2.39,2.39,0,0,1-1.49-.44c-2.28-1.41-4.72-1.35-7.33-.69l2.26,2.56c1.72,2,3.16,4.15,4.68,6.28.19.77.58,1,1.41.74a6.75,6.75,0,0,1,6.64,1.18,4.74,4.74,0,0,0,1.9.8c.41.12.49,0,.42-.39a4.13,4.13,0,0,0-.64-1.82c-1.19-1.39-1.65-3.12-2.35-4.74a2.39,2.39,0,0,0-.3-.57C159.58,27.76,159,26.67,157.81,26.23ZM159,44a26.5,26.5,0,0,0,2.07,3.27,15,15,0,0,1,2,3.34c.35.9.33.9,1,.22a2.25,2.25,0,0,1,.53-.36A3.14,3.14,0,0,0,166,47.24a4.79,4.79,0,0,1,0-3.17c.66-1.93-.37-3.48-1.71-4.83a3.13,3.13,0,0,0-2.18-1.39,3.25,3.25,0,0,1-1.84-.88,5.28,5.28,0,0,0-5.07-1.07c-.32.07-.64.16-.36.64C156.25,39,157.49,41.58,159,44Zm4.55,9.7a8.56,8.56,0,0,1-4,5.46,22.35,22.35,0,0,1-4.24,2.18,33.31,33.31,0,0,1-10.87,1.93,32.43,32.43,0,0,0-7.22.82c-1.62.44-3.35.53-4.84,1.27a46.06,46.06,0,0,1-10.29,3.6,154.69,154.69,0,0,1-28.86,3.21A141.64,141.64,0,0,1,70.07,70.9a92,92,0,0,1-22.74-5.52A69,69,0,0,0,32.4,61.25a119.59,119.59,0,0,1-12.15-2.38,24.85,24.85,0,0,1-8-3.46c-2.89-2-5.06-5.67-1.94-9.67.11-.14.3-.27.06-.52a19.13,19.13,0,0,0-2.19,1.63,14.67,14.67,0,0,0-4.12,4.61,6.91,6.91,0,0,0-.92,4.2,10,10,0,0,0,3.36,6,36.35,36.35,0,0,0,11.14,6.92,114.37,114.37,0,0,0,24.67,7.11A231.47,231.47,0,0,0,81.4,79.43,248.28,248.28,0,0,0,121.07,77a149.64,149.64,0,0,0,25.17-5.64A62.12,62.12,0,0,0,160.38,65a19.19,19.19,0,0,0,6.73-6.43,7.06,7.06,0,0,0,0-7.11c-.09-.17-.16-.66-.52-.31A13.26,13.26,0,0,1,163.59,53.68Z"/><path class="cls-2" d="M62.9,32.44A28.08,28.08,0,0,0,63.31,28c-.06-2.46-1-4.65-1.87-6.9a25.52,25.52,0,0,1-1.8-10,5.74,5.74,0,0,1,.25-1.59,1.77,1.77,0,0,0,.92-.28c1.07-.43,2.13-.92,3.23-1.29A82.41,82.41,0,0,1,83,3.67a51.6,51.6,0,0,1,12,.22c4.17.58,8.28,1.48,12.39,2.41a41.21,41.21,0,0,1,11.06,3.77c1.25.7,2.54,1.3,3.82,1.94h0c.06.16.2.17.34.18h0l.25.18a13.59,13.59,0,0,1,3.52,4,1.9,1.9,0,0,1,.31.9c-2.42.75-4.83,1.51-7.26,2.23a20.38,20.38,0,0,0-7.14,3.86,13.52,13.52,0,0,1-9.2,3.32,36.27,36.27,0,0,0-5.8.33,9.7,9.7,0,0,0-7.34,4.32,32.86,32.86,0,0,1-2.06,2.89c-2.17,2.62-5.1,3.56-8.39,3.64a36.16,36.16,0,0,1-5.78-.48,17.62,17.62,0,0,1-8.88-3.58C64.2,33.25,63.73,32.57,62.9,32.44Zm9.79-14.25a7.63,7.63,0,0,0,4.19-1.39A4.87,4.87,0,0,0,79.17,12a5,5,0,0,0-5.79-4.28,7.2,7.2,0,0,0-5.54,3.8C66.22,14.52,68,18.12,72.69,18.19Zm12.9-6.8a2.15,2.15,0,0,0,2.27-2.13A2.35,2.35,0,0,0,85.48,7a2.2,2.2,0,1,0,.11,4.39Z"/><path class="cls-3" d="M15.52,44.4c.94-.92,2-1.71,2.87-2.72a3.91,3.91,0,0,0,.78-1.22,19.48,19.48,0,0,1,4-6.11,14.93,14.93,0,0,0,4.41,6.57c1.62,1.49,3.4,2.81,5,4.29a31.71,31.71,0,0,0,9.34,5.86A44.53,44.53,0,0,0,50,53.85,69.17,69.17,0,0,0,64.82,55a10.45,10.45,0,0,0,2.94-.28A27.33,27.33,0,0,0,74,56.46a72.4,72.4,0,0,0,9.31.28c1,0,2,0,3,.09A14.41,14.41,0,0,1,91,58.52a11.06,11.06,0,0,0,4.51,1.18c3,.09,5.4-1.27,7.73-2.91a18.45,18.45,0,0,0,5.26-5.86c.89.3,1.77.64,2.67.91a30.75,30.75,0,0,0,11.56,1.4c2.54-.23,5.07-.56,7.6-.92a92.61,92.61,0,0,0,12-2.7,14.71,14.71,0,0,0,5-2,15.07,15.07,0,0,0,2.38-2.41c1.72-2.06,3.23-4.21,2.94-7.11,1.62,2.73,3,5.58,4.71,8.26.9,1.42,1.83,2.84,2.74,4.26a4,4,0,0,1-.66.7,25.48,25.48,0,0,1-7,3.49,54.1,54.1,0,0,1-12.84,1.8c-2.21.12-4.39.45-6.57.75-2.57.35-5.06,1.09-7.61,1.53a66.18,66.18,0,0,0-15.29,4.32c-4,1.74-8,3.4-12.41,3.71a37.38,37.38,0,0,1-7.25,0,71.54,71.54,0,0,1-11.57-2.2c-7.09-2.1-14.47-2.88-21.68-4.4C50.41,58.92,43.57,58,36.82,56.59a24.62,24.62,0,0,1-8.76-3.21,25,25,0,0,0-4.21-2.24C20.39,49.72,17.43,47.72,15.52,44.4Z"/><path class="cls-4" d="M62.9,32.44c.83.13,1.3.81,1.9,1.29a17.62,17.62,0,0,0,8.88,3.58,36.16,36.16,0,0,0,5.78.48c3.29-.08,6.22-1,8.39-3.64a32.86,32.86,0,0,0,2.06-2.89,9.7,9.7,0,0,1,7.34-4.32,36.27,36.27,0,0,1,5.8-.33,13.52,13.52,0,0,0,9.2-3.32,20.38,20.38,0,0,1,7.14-3.86c2.43-.72,4.84-1.48,7.26-2.23.67,2,.33,3.07-1.37,4.16a19,19,0,0,1-4.61,2.16,10.88,10.88,0,0,0-7.6,7.53c-1.93,6.05-3.83,12.09-6.72,17.78a15.91,15.91,0,0,1-8.1,7.58,6.55,6.55,0,0,1-5.51-.14c-.81-.37-1.62-.73-2.42-1.12A11.57,11.57,0,0,0,85.39,54c-3.27-.08-6.55.18-9.8-.15-5.94-.62-10.91-3-14.2-8.19a7.52,7.52,0,0,1-.78-6.4C61.29,37,62.33,34.78,62.9,32.44Z"/><path class="cls-5" d="M67.76,54.67a10.45,10.45,0,0,1-2.94.28A69.17,69.17,0,0,1,50,53.85a44.53,44.53,0,0,1-8.1-2.78,31.71,31.71,0,0,1-9.34-5.86c-1.63-1.48-3.41-2.8-5-4.29a14.93,14.93,0,0,1-4.41-6.57,74.15,74.15,0,0,1,6.12-6.78c1.71-1.73,3.43-3.44,5.28-5l.14-.14h0a.7.7,0,0,0,.47-.35h0c.06,0,.11-.11.17-.17h0a.33.33,0,0,0,.33-.33h0a.48.48,0,0,0,.49-.35h0c.47-.05.7-.43,1-.72,1.77-1.17,3.63-2.21,5.44-3.33A49,49,0,0,1,57,11.3,30.9,30.9,0,0,0,59.6,23.56c1.58,3.7,1.12,7.32-.18,11a34.21,34.21,0,0,0-1.73,5.21A10.8,10.8,0,0,0,59.9,48.4a18.91,18.91,0,0,0,7,5.8ZM38.91,37.13a.91.91,0,0,0,.62.94.69.69,0,0,0,.86-.43,11.26,11.26,0,0,1,1-1.84.71.71,0,0,0,0-.91.68.68,0,0,0-.9,0A3.33,3.33,0,0,0,38.91,37.13Zm5.49-.41c0-.51-.07-.78-.36-.94a.51.51,0,0,0-.61,0,3.06,3.06,0,0,0-1.26,2.25.74.74,0,0,0,.51.83c.32.08.72.11.89-.21C43.91,38,44.18,37.26,44.4,36.72Z"/><path class="cls-5" d="M152.59,38.08c.29,2.9-1.22,5.05-2.94,7.11a15.07,15.07,0,0,1-2.38,2.41,14.71,14.71,0,0,1-5,2,92.61,92.61,0,0,1-12,2.7c-2.53.36-5.06.69-7.6.92a30.75,30.75,0,0,1-11.56-1.4c-.9-.27-1.78-.61-2.67-.91,1.36-3,2.8-5.9,4-9,.91-2.39,1.61-4.86,2.37-7.3A18.89,18.89,0,0,1,117.61,29a7.1,7.1,0,0,1,4-2.85,18,18,0,0,0,5.54-2.63,5.84,5.84,0,0,0,2.48-3.39l4.76,1.83c3.27,1.27,6.57,2.49,9.35,4.73a3.06,3.06,0,0,0,1.41.9h0l.17.19,0,0c.07.2.25.26.42.34A44.09,44.09,0,0,1,152.59,38.08Zm-24,2a2.45,2.45,0,0,0-.33-1.44.81.81,0,0,0-1-.45.71.71,0,0,0-.48.91,5.44,5.44,0,0,1,.15,1.27c0,.58.16,1.1.76,1.13s.79-.53.85-1.07C128.58,40.31,128.57,40.2,128.57,40.06ZM120,42.21a.94.94,0,0,0,.57,1,.74.74,0,0,0,.85-.32,2.29,2.29,0,0,0,.49-1.57.83.83,0,0,0-.64-.75c-.34-.1-.57.11-.76.35A2.42,2.42,0,0,0,120,42.21ZM123.86,41c.06.5.12,1.15.79,1.17s.84-.65.84-1.24,0-1.15-.82-1.14S123.91,40.36,123.86,41Z"/><path class="cls-6" d="M163.59,53.68a13.26,13.26,0,0,0,3-2.49c.36-.35.43.14.52.31a7.06,7.06,0,0,1,0,7.11A19.19,19.19,0,0,1,160.38,65a62.12,62.12,0,0,1-14.14,6.34A149.64,149.64,0,0,1,121.07,77,248.28,248.28,0,0,1,81.4,79.43a231.47,231.47,0,0,1-39.06-3.71,114.37,114.37,0,0,1-24.67-7.11A36.35,36.35,0,0,1,6.53,61.69a10,10,0,0,1-3.36-6,6.91,6.91,0,0,1,.92-4.2,14.67,14.67,0,0,1,4.12-4.61c.28.25.08.52,0,.75a9.14,9.14,0,0,0,1.21,7.22,18.47,18.47,0,0,0,5.79,5.78A56.44,56.44,0,0,0,29,67.12,134.66,134.66,0,0,0,48.72,72c3.79.69,7.6,1.25,11.42,1.72,3,.37,5.94.61,8.91.89,4.11.38,8.23.64,12.34.71,3.5.06,7,.3,10.52.11,3.82-.2,7.65-.09,11.48-.35,3-.2,5.91-.39,8.86-.65q6.28-.54,12.5-1.52a118.93,118.93,0,0,0,21.59-5.27c4.56-1.65,9-3.58,12.75-6.72a12.77,12.77,0,0,0,4.54-6.46C163.7,54.22,163.88,53.94,163.59,53.68Z"/><path class="cls-7" d="M163.59,53.68c.29.26.11.54,0,.82A12.77,12.77,0,0,1,159.09,61c-3.77,3.14-8.19,5.07-12.75,6.72A118.93,118.93,0,0,1,124.75,73q-6.23,1-12.5,1.52c-3,.26-5.91.45-8.86.65-3.83.26-7.66.15-11.48.35-3.52.19-7,0-10.52-.11-4.11-.07-8.23-.33-12.34-.71-3-.28-5.95-.52-8.91-.89-3.82-.47-7.63-1-11.42-1.72A134.66,134.66,0,0,1,29,67.12a56.44,56.44,0,0,1-13.8-6.52,18.47,18.47,0,0,1-5.79-5.78A9.14,9.14,0,0,1,8.23,47.6c.06-.23.26-.5,0-.75a19.13,19.13,0,0,1,2.19-1.63c.24.25,0,.38-.06.52-3.12,4-.95,7.64,1.94,9.67a24.85,24.85,0,0,0,8,3.46A119.59,119.59,0,0,0,32.4,61.25a69,69,0,0,1,14.93,4.13A92,92,0,0,0,70.07,70.9a141.64,141.64,0,0,0,23.19,1.25,154.69,154.69,0,0,0,28.86-3.21,46.06,46.06,0,0,0,10.29-3.6c1.49-.74,3.22-.83,4.84-1.27a32.43,32.43,0,0,1,7.22-.82,33.31,33.31,0,0,0,10.87-1.93,22.35,22.35,0,0,0,4.24-2.18A8.56,8.56,0,0,0,163.59,53.68Z"/><path class="cls-8" d="M15.52,44.4c1.91,3.32,4.87,5.32,8.33,6.74a25,25,0,0,1,4.21,2.24,24.62,24.62,0,0,0,8.76,3.21c6.75,1.39,13.59,2.33,20.34,3.74,7.21,1.52,14.59,2.3,21.68,4.4a71.54,71.54,0,0,0,11.57,2.2,37.38,37.38,0,0,0,7.25,0c4.41-.31,8.42-2,12.41-3.71a66.18,66.18,0,0,1,15.29-4.32c2.55-.44,5-1.18,7.61-1.53,2.18-.3,4.36-.63,6.57-.75a54.1,54.1,0,0,0,12.84-1.8,25.48,25.48,0,0,0,7-3.49,4,4,0,0,0,.66-.7c1.34,2.23,1,4-1.14,5.65a19.32,19.32,0,0,1-8.4,3.61,67,67,0,0,1-10.49.81c-1.4,0-2.81.08-4.21.16a9.31,9.31,0,0,0-5.24,1.93,15,15,0,0,1-4.7,2.3,80,80,0,0,1-15.06,3,184.65,184.65,0,0,1-26.28,1.31c-4.47-.09-8.88-.66-13.31-1.15a98.81,98.81,0,0,1-17-3.38c-3.77-1.09-7.36-2.68-11.06-3.95a74.18,74.18,0,0,0-11.44-2.55,87.57,87.57,0,0,1-12.82-2.74,20.15,20.15,0,0,1-5-2.38,7.44,7.44,0,0,1-.84-.64c-1.92-1.77-2.06-3.29-.52-5.4A13.12,13.12,0,0,1,15.52,44.4Z"/><path class="cls-9" d="M122.27,12c-1.28-.64-2.57-1.24-3.82-1.94A41.21,41.21,0,0,0,107.39,6.3C103.28,5.37,99.17,4.47,95,3.89a51.6,51.6,0,0,0-12-.22A82.41,82.41,0,0,0,64,7.85c-1.1.37-2.16.86-3.23,1.29a1.77,1.77,0,0,1-.92.28c.11-1,.86-1.51,1.63-2a9.38,9.38,0,0,1,3.24-1.22c2.32-.4,4.54-1.18,6.8-1.8A52.34,52.34,0,0,1,87.12,2.66a104.42,104.42,0,0,1,16.36,1.58,51.59,51.59,0,0,1,17.84,7C121.67,11.42,122.1,11.57,122.27,12Z"/><path class="cls-10" d="M164.28,39.24c1.34,1.35,2.37,2.9,1.71,4.83a4.79,4.79,0,0,0,0,3.17,3.14,3.14,0,0,1-1.38,3.21,2.25,2.25,0,0,0-.53.36c-.63.68-.61.68-1-.22a15,15,0,0,0-2-3.34A26.5,26.5,0,0,1,159,44a4.37,4.37,0,0,0,.94-2c.05-.25.05-.53.43-.59A6.85,6.85,0,0,0,164.28,39.24ZM163.89,45a.89.89,0,0,0-.68-.69c-.22-.05-.4.06-.39.29a.8.8,0,0,0,.7.77C163.72,45.41,163.86,45.24,163.89,45Zm-1.17,1.32c.28,0,.38-.18.37-.42a.57.57,0,0,0-.54-.6c-.25,0-.38.18-.38.42S162.42,46.22,162.72,46.32Z"/><path class="cls-11" d="M153.19,33.51c-1.52-2.13-3-4.31-4.68-6.28l-2.26-2.56c2.61-.66,5.05-.72,7.33.69a2.39,2.39,0,0,0,1.49.44,4.41,4.41,0,0,1,2.74.43,6.08,6.08,0,0,1-3,3.3.4.4,0,0,0-.27.44C154.64,31.37,153.84,32.41,153.19,33.51Z"/><path class="cls-10" d="M153.19,33.51c.65-1.1,1.45-2.14,1.34-3.54a.4.4,0,0,1,.27-.44,6.08,6.08,0,0,0,3-3.3c1.21.44,1.77,1.53,2.46,2.48a2.39,2.39,0,0,1,.3.57c.7,1.62,1.16,3.35,2.35,4.74a4.13,4.13,0,0,1,.64,1.82c.07.34,0,.51-.42.39a4.74,4.74,0,0,1-1.9-.8,6.75,6.75,0,0,0-6.64-1.18C153.77,34.5,153.38,34.28,153.19,33.51Zm5.45-2.66a.35.35,0,0,0-.38.43.85.85,0,0,0,.69.79.31.31,0,0,0,.39-.38A.91.91,0,0,0,158.64,30.85Zm-.76,1c-.26,0-.42.15-.4.4a.54.54,0,0,0,.46.5.33.33,0,0,0,.43-.35C158.37,32.07,158.16,31.91,157.88,31.83Z"/><path class="cls-12" d="M145.15,27.56a3.06,3.06,0,0,1-1.41-.9c-2.78-2.24-6.08-3.46-9.35-4.73l-4.76-1.83a8.38,8.38,0,0,0-.7-4.87c2.34,1.27,4.66,2,6.57,3.57a81.43,81.43,0,0,1,8.27,7.14A5.25,5.25,0,0,1,145.15,27.56Z"/><path class="cls-11" d="M164.28,39.24a6.85,6.85,0,0,1-3.87,2.13c-.38.06-.38.34-.43.59a4.37,4.37,0,0,1-.94,2c-1.55-2.4-2.79-5-4.21-7.44-.28-.48,0-.57.36-.64A5.28,5.28,0,0,1,160.26,37a3.25,3.25,0,0,0,1.84.88A3.13,3.13,0,0,1,164.28,39.24Z"/><path class="cls-13" d="M57,11.3a49,49,0,0,0-14.47,5.88c-1.81,1.12-3.67,2.16-5.44,3.33,0-.08,0-.15,0-.23a59.06,59.06,0,0,1,14.24-9.54c2.1-1,4.18-2,6.49-3.07A14,14,0,0,0,57,11.3Z"/><path class="cls-9" d="M37.1,20.28c0,.08,0,.15,0,.23-.31.29-.54.67-1,.72C36.3,20.77,36.73,20.56,37.1,20.28Z"/><path class="cls-9" d="M36.14,21.23a.48.48,0,0,1-.49.35C35.76,21.4,35.86,21.18,36.14,21.23Z"/><path class="cls-9" d="M35.65,21.57a.33.33,0,0,1-.33.33A.39.39,0,0,1,35.65,21.57Z"/><path class="cls-12" d="M145.7,28.06c-.17-.08-.35-.14-.42-.34C145.55,27.67,145.58,27.93,145.7,28.06Z"/><path class="cls-9" d="M35.17,22.05a.7.7,0,0,1-.47.35C34.83,22.24,34.92,22,35.17,22.05Z"/><path class="cls-9" d="M122.59,12.18c-.14,0-.28,0-.34-.18C122.42,12,122.51,12.06,122.59,12.18Z"/><path class="cls-9" d="M122.82,12.35l-.25-.18Z"/><path class="cls-12" d="M145.3,27.74l-.17-.19C145.3,27.51,145.34,27.58,145.3,27.74Z"/><path class="cls-9" d="M34.69,22.41l-.14.14Z"/><path class="cls-9" d="M35.33,21.89c-.06.06-.11.12-.17.17C35.14,21.93,35.22,21.89,35.33,21.89Z"/><path class="cls-14" d="M72.69,18.19c-4.65-.07-6.47-3.67-4.85-6.65a7.2,7.2,0,0,1,5.54-3.8A5,5,0,0,1,79.17,12a4.87,4.87,0,0,1-2.29,4.78A7.63,7.63,0,0,1,72.69,18.19Z"/><path class="cls-14" d="M85.59,11.39A2.2,2.2,0,1,1,85.48,7a2.35,2.35,0,0,1,2.38,2.26A2.15,2.15,0,0,1,85.59,11.39Z"/><path class="cls-15" d="M38.91,37.13a3.33,3.33,0,0,1,1.54-2.28.68.68,0,0,1,.9,0,.71.71,0,0,1,0,.91,11.26,11.26,0,0,0-1,1.84.69.69,0,0,1-.86.43A.91.91,0,0,1,38.91,37.13Z"/><path class="cls-15" d="M44.4,36.72c-.22.54-.49,1.28-.83,2-.17.32-.57.29-.89.21a.74.74,0,0,1-.51-.83,3.06,3.06,0,0,1,1.26-2.25.51.51,0,0,1,.61,0C44.33,35.94,44.43,36.21,44.4,36.72Z"/><path class="cls-15" d="M128.57,40.06c0,.14,0,.25,0,.35-.06.54-.2,1.11-.85,1.07s-.8-.55-.76-1.13a5.44,5.44,0,0,0-.15-1.27.71.71,0,0,1,.48-.91.81.81,0,0,1,1,.45A2.45,2.45,0,0,1,128.57,40.06Z"/><path class="cls-15" d="M120,42.21a2.42,2.42,0,0,1,.51-1.27c.19-.24.42-.45.76-.35a.83.83,0,0,1,.64.75,2.29,2.29,0,0,1-.49,1.57.74.74,0,0,1-.85.32A.94.94,0,0,1,120,42.21Z"/><path class="cls-15" d="M123.86,41c0-.6,0-1.2.81-1.21s.82.58.82,1.14-.1,1.25-.84,1.24S123.92,41.46,123.86,41Z"/><path class="cls-11" d="M163.89,45c0,.24-.17.41-.37.37a.8.8,0,0,1-.7-.77c0-.23.17-.34.39-.29A.89.89,0,0,1,163.89,45Z"/><path class="cls-11" d="M162.72,46.32c-.3-.1-.56-.23-.55-.6s.13-.44.38-.42a.57.57,0,0,1,.54.6C163.1,46.14,163,46.32,162.72,46.32Z"/><path class="cls-11" d="M158.64,30.85a.91.91,0,0,1,.7.84.31.31,0,0,1-.39.38.85.85,0,0,1-.69-.79A.35.35,0,0,1,158.64,30.85Z"/><path class="cls-11" d="M157.88,31.83c.28.08.49.24.49.55a.33.33,0,0,1-.43.35.54.54,0,0,1-.46-.5C157.46,32,157.62,31.85,157.88,31.83Z"/></g></g></svg>