<svg xmlns="http://www.w3.org/2000/svg" viewBox="0 0 329.05 329.05"><defs><style>.cls-1{fill:#8e704c;}.cls-2{fill:#f0fcff;}.cls-3,.cls-4{fill:none;stroke-miterlimit:10;}.cls-3{stroke:#a0c1eb;stroke-width:14px;}.cls-4{stroke:#f0fcff;stroke-width:21px;}.cls-5{fill:#a0c1eb;}</style></defs><g id="圖層_2" data-name="圖層 2"><g id="圖層_8" data-name="圖層 8"><circle class="cls-1" cx="164.53" cy="164.53" r="164.53"/><circle class="cls-2" cx="164.53" cy="164.53" r="123.35"/><circle class="cls-3" cx="164.53" cy="164.53" r="119.3"/><circle class="cls-4" cx="164.53" cy="164.53" r="131.2"/><path class="cls-5" d="M168.2,294.69a4.56,4.56,0,0,1,4.27-4.84h0a4.57,4.57,0,0,1,4.86,4.28h0a4.56,4.56,0,0,1-4.28,4.84h-.29A4.57,4.57,0,0,1,168.2,294.69Zm-28.8,1.77h0a4.58,4.58,0,0,1-3.64-5.35h0a4.55,4.55,0,0,1,5.33-3.64h0a4.58,4.58,0,0,1,3.66,5.34h0a4.59,4.59,0,0,1-4.5,3.72h0A5,5,0,0,1,139.4,296.46Zm61-6.73a4.57,4.57,0,0,1,2.94-5.76h0a4.57,4.57,0,0,1,5.76,2.93h0a4.57,4.57,0,0,1-2.93,5.76h0a4.74,4.74,0,0,1-1.42.23h0A4.58,4.58,0,0,1,200.45,289.73Zm-93.22-3.22a4.58,4.58,0,0,1-2.32-6h0a4.58,4.58,0,0,1,6-2.32h0a4.59,4.59,0,0,1,2.32,6.05h0a4.58,4.58,0,0,1-4.19,2.71h0A4.38,4.38,0,0,1,107.23,286.51Zm123.21-9.65a4.57,4.57,0,0,1,1.4-6.32h0a4.58,4.58,0,0,1,6.32,1.4h0a4.57,4.57,0,0,1-1.4,6.31h0a4.48,4.48,0,0,1-2.46.72h0A4.58,4.58,0,0,1,230.44,276.86Zm-152-8a4.58,4.58,0,0,1-.66-6.44h0a4.56,4.56,0,0,1,6.43-.65h0a4.57,4.57,0,0,1,.67,6.42h0a4.55,4.55,0,0,1-3.55,1.69h0A4.56,4.56,0,0,1,78.41,268.86Zm177.87-11.93a4.58,4.58,0,0,1-.2-6.47h0a4.57,4.57,0,0,1,6.46-.2h0a4.56,4.56,0,0,1,.21,6.46h0a4.62,4.62,0,0,1-3.34,1.44h0A4.55,4.55,0,0,1,256.28,256.93Zm-201-12.78a4.57,4.57,0,0,1,1.09-6.38h0a4.57,4.57,0,0,1,6.37,1.08h0a4.58,4.58,0,0,1-1.08,6.38h0a4.62,4.62,0,0,1-2.64.84h0A4.58,4.58,0,0,1,55.29,244.15Zm221.1-12.93A4.56,4.56,0,0,1,274.6,225h0a4.57,4.57,0,0,1,6.21-1.8h0a4.56,4.56,0,0,1,1.79,6.21h0a4.53,4.53,0,0,1-4,2.36h0A4.62,4.62,0,0,1,276.39,231.22ZM39.47,214.29a4.59,4.59,0,0,1,2.67-5.9h0a4.59,4.59,0,0,1,5.9,2.67h0a4.58,4.58,0,0,1-2.67,5.9h0a4.62,4.62,0,0,1-1.62.29h0A4.57,4.57,0,0,1,39.47,214.29Zm250-13a4.56,4.56,0,0,1-3.3-5.56h0a4.55,4.55,0,0,1,5.56-3.29h0A4.56,4.56,0,0,1,295,198h0a4.57,4.57,0,0,1-4.42,3.44h0A4.41,4.41,0,0,1,289.48,201.31Zm-258-19.8a4.58,4.58,0,0,1,4-5.08h0a4.56,4.56,0,0,1,5.08,4h0a4.57,4.57,0,0,1-4,5.08h0a3.27,3.27,0,0,1-.54,0h0A4.59,4.59,0,0,1,31.51,181.51Zm258.59-17v-.15h0v-.15h0a4.56,4.56,0,0,1,4.55-4.58h0a4.58,4.58,0,0,1,4.59,4.56h0a1,1,0,0,1,0,.17h0a.76.76,0,0,1,0,.15h0a4.58,4.58,0,0,1-4.57,4.57h0A4.57,4.57,0,0,1,290.1,164.53ZM35.48,152.88a4.58,4.58,0,0,1-4-5.08h0a4.58,4.58,0,0,1,5.08-4h0a4.57,4.57,0,0,1,4,5.07h0a4.56,4.56,0,0,1-4.54,4h0ZM286.1,133a4.58,4.58,0,0,1,3.29-5.58h0a4.57,4.57,0,0,1,5.57,3.29h0a4.57,4.57,0,0,1-3.28,5.57h0a4.58,4.58,0,0,1-1.14.15h0A4.6,4.6,0,0,1,286.1,133ZM42,120.9A4.57,4.57,0,0,1,39.36,115h0a4.57,4.57,0,0,1,5.88-2.68h0a4.58,4.58,0,0,1,2.69,5.89h0a4.58,4.58,0,0,1-4.29,3h0A4.51,4.51,0,0,1,42,120.9Zm232.41-17.11a4.57,4.57,0,0,1,1.79-6.21h0a4.56,4.56,0,0,1,6.21,1.78h0a4.57,4.57,0,0,1-1.78,6.22h0a4.65,4.65,0,0,1-2.21.58h0A4.59,4.59,0,0,1,274.45,103.79ZM56.21,91.51a4.57,4.57,0,0,1-1.1-6.37h0A4.56,4.56,0,0,1,61.48,84h0a4.58,4.58,0,0,1,1.1,6.37h0a4.57,4.57,0,0,1-3.74,1.94h0A4.59,4.59,0,0,1,56.21,91.51ZM255.89,78.38h0a4.57,4.57,0,0,1,.19-6.46h0a4.57,4.57,0,0,1,6.46.2h0a4.57,4.57,0,0,1-.18,6.46h0a4.6,4.6,0,0,1-3.15,1.24h0A4.53,4.53,0,0,1,255.89,78.38ZM77.52,66.81a4.57,4.57,0,0,1,.64-6.43h0A4.58,4.58,0,0,1,84.6,61h0A4.58,4.58,0,0,1,84,67.46h0a4.6,4.6,0,0,1-2.9,1h0A4.55,4.55,0,0,1,77.52,66.81Zm154.09-8.46A4.57,4.57,0,0,1,230.19,52h0a4.58,4.58,0,0,1,6.31-1.41h0a4.56,4.56,0,0,1,1.41,6.31h0a4.55,4.55,0,0,1-3.86,2.13h0A4.47,4.47,0,0,1,231.61,58.35Zm-127-9.65a4.56,4.56,0,0,1,2.31-6h0a4.58,4.58,0,0,1,6,2.3h0a4.58,4.58,0,0,1-2.3,6h0a4.47,4.47,0,0,1-1.87.4h0A4.57,4.57,0,0,1,104.64,48.7ZM203.11,45a4.59,4.59,0,0,1-3-5.76h0a4.56,4.56,0,0,1,5.76-2.94h0a4.57,4.57,0,0,1,3,5.75h0a4.58,4.58,0,0,1-4.35,3.17h0A4.61,4.61,0,0,1,203.11,45Zm-67.64-7a4.57,4.57,0,0,1,3.63-5.35h0a4.58,4.58,0,0,1,5.35,3.64h0a4.57,4.57,0,0,1-3.64,5.34h0a4.19,4.19,0,0,1-.86.09h0A4.56,4.56,0,0,1,135.47,38Zm36.72,1.19h0a4.57,4.57,0,0,1-4.29-4.84h0a4.57,4.57,0,0,1,4.84-4.29h0A4.57,4.57,0,0,1,177,34.9h0a4.57,4.57,0,0,1-4.56,4.3h-.28Z"/><path class="cls-5" d="M164.53,327C74.94,327,2.06,254.11,2.06,164.53S74.94,2.06,164.53,2.06,327,74.94,327,164.53,254.11,327,164.53,327Zm0-300C88.7,27,27,88.7,27,164.53S88.7,302.05,164.53,302.05s137.52-61.69,137.52-137.52S240.36,27,164.53,27Z"/><path class="cls-2" d="M315.69,172c3.49,2.91,7.23,5,10.1,5.18l.67,0,.1-1.37c-.23,0-.45,0-.66,0a11.83,11.83,0,0,1-4.45-1.46,31.4,31.4,0,0,1-5-3.35c-3.06-2.48-5.17-5.06-5.14-6.48h-1.24C310,166.75,312.94,169.76,315.69,172Z"/><path class="cls-2" d="M290.56,237.28l1.08.63c.7-1.25,3.92-2.36,7.71-3,4.2-.7,8.31-.56,10.63.57a5.57,5.57,0,0,1,.58.32c.2-.41.42-.82.6-1.24a5.45,5.45,0,0,0-.58-.31c-2.57-1.23-6.89-1.36-11.41-.6A27.81,27.81,0,0,0,294,235,6.46,6.46,0,0,0,290.56,237.28Z"/><path class="cls-2" d="M284.91,234l-1.08-.62c.58-1,1.94-1.9,3.75-2.68a33.23,33.23,0,0,1,6.58-2,63.88,63.88,0,0,1,7.93-1.13,32.19,32.19,0,0,1,7.67.26,13.28,13.28,0,0,1-.5-2.14,20.17,20.17,0,0,1-2.29-.81,21.68,21.68,0,0,1-6.35-4.18A24.25,24.25,0,0,1,297,223.5a22.42,22.42,0,0,1-3.51,1.83,10.41,10.41,0,0,1-3.08.76,4.47,4.47,0,0,1-2.34-.36l.53-1c.92.44,2.56.25,4.54-.58a23.51,23.51,0,0,0,6.62-4.3,24,24,0,0,1-5.22-8.4h0l0-.09c-.11-.3-.22-.59-.31-.89l.69-2.05c.13.56.28,1.12.46,1.68a19.93,19.93,0,0,0,6.85-2.7,19.38,19.38,0,0,0,4.79-4.68c0-.54-.1-1.08-.2-1.63s-.25-1.1-.41-1.64a18.63,18.63,0,0,0-3.13-6.17,19.76,19.76,0,0,0-2.67-2.76q-.63.6-1.2,1.23l.37-2.12c.23-.22.46-.42.7-.62l.07-.07h0a23.38,23.38,0,0,1,4.11-2.75,22.74,22.74,0,0,1,4.62-1.93c-1.83-5.81-5.28-9.68-7.25-9.8l.08-1.17c1.39.09,3,1.2,4.48,3.07a20.75,20.75,0,0,1,2.18,3.34,29.36,29.36,0,0,1,1.71,4.23,21.53,21.53,0,0,1,7.58-.45,20.8,20.8,0,0,1,2.38.44,13.77,13.77,0,0,1,1.55-1.6c-4.36-1.63-9.32-5.12-13.08-8.54a40.58,40.58,0,0,1-4.74-5,7.41,7.41,0,0,1-1.83-4.2h1.25c0,1.07.74,2.52,2.11,4.19a47.38,47.38,0,0,0,5.6,5.44c4,3.34,8.41,6.05,12,7.14l.43-.29.36-.22.19-.12.26-.15.1-.06.42-.22.37-.17,0,0,.13-.06.3-.12h0l0,0,.15-.06.25-.09-.1,1.37-.29.11-.36.16-.32.15,0,0-.37.18.62.09.37,0,.29,0-.18,1.36h-.07l-.26,0-.32,0a13.15,13.15,0,0,1-2.07-.43,12.84,12.84,0,0,0-1.7,1.51l.47.15.12,0,.23.08.24.09.13,0,.26.1.19.08.29.12.23.11a.2.2,0,0,1,.08,0l.35.16.36.18.05,0,.18.09a0,0,0,0,1,0,0l.39.21.45.27,0,0-.19,1.47-.3-.19-.32-.2-.33-.19-.29-.17-.18-.09-.3-.16-.58-.28-.25-.11-.29-.12-.3-.13-.3-.11-.3-.11-.3-.11-.78-.24A12.6,12.6,0,0,0,319,188a13.77,13.77,0,0,0-1,3.09l0,.27-.06.4a.43.43,0,0,0,0,.11c0,.12,0,.25,0,.37l0,.31v0l0,.2v.79c0,.14,0,.27,0,.41l0,.41v.1l0,.29,0,.21a1.36,1.36,0,0,0,0,.2l.05.29a5.67,5.67,0,0,0,.1.57l0,.23c0,.23.08.45.14.67a1.55,1.55,0,0,0,0,.23l.05.19h0a3.57,3.57,0,0,0,.1.35c.05.18.11.36.17.55l.1.26.11.27.06.16.16.37,0,0,.16.33c.13.26.26.52.41.76l.16.27.12.2.14.22h0c.1.15.21.31.32.45h0l.19.25.26.33,0,0,.25.29.17.19s0,0,0,0l.12.14.26.26.3.29.26.23.05.05-.12.54A13.42,13.42,0,0,1,317.3,196a14.51,14.51,0,0,1,2.23-10.95c-.55-.12-1.12-.23-1.69-.3a19.92,19.92,0,0,0-7,.35,23,23,0,0,1,.62,2.61,23.67,23.67,0,0,1,0,7.42,24,24,0,0,1-2.48,7c-.19.31-.38.61-.58.91,0,.36,0,.71,0,1.07a20.84,20.84,0,0,1-1.35,7.32,20.56,20.56,0,0,1-3.71,6.43c-.59.68-1.2,1.34-1.82,2a20.66,20.66,0,0,0,5.95,3.83c.53.22,1.07.41,1.61.58a13.84,13.84,0,0,1,.65-5.52,14.76,14.76,0,0,1,2.82-5.11,14.13,14.13,0,0,1,8.27-4.76l-.15.54h-.07l-.33.07-.4.11-.35.1-.18.05h0l-.24.08-.35.13h0l-.39.16-.28.12h0l-.49.24h0l-.23.12-.2.11-.27.16q-.37.21-.72.45l-.3.22,0,0-.33.24-.14.1-.23.18-.22.18-.44.38-.27.25h0l-.15.14-.16.16-.47.51-.16.18c-.12.15-.25.29-.37.45l-.17.23-.12.16-.12.17-.16.24v0l-.05.07-.22.34c-.07.12-.14.23-.2.35l-.11.21-.1.18-.15.32-.09.18s0,0,0,0l-.13.29c-.05.11-.09.23-.14.34s0,.07,0,.11l-.13.37-.1.27a12.39,12.39,0,0,0-.69,6.29c.26.07.52.13.79.18l.31.06.31,0,.32.05.32,0,.31,0,.27,0,.64.05h2l-.55,1.38H313.5l-.4,0-.38,0h-.1l-.24,0-.32,0-.2,0-.27,0-.15,0-.24,0-.24,0-.13,0-.49-.1a14.06,14.06,0,0,0,.69,2.14,13.16,13.16,0,0,1,2,.67l.3.13.23.11,0,0,0,0-.57,1.26-.25-.14-.34-.15a5,5,0,0,0-.58-.23c.07.11.15.22.22.34l0,0,.19.29.24.32.19.24-.57,1.25-.17-.21-.11-.12v0l0,0-.2-.26-.08-.12,0,0-.23-.33-.26-.41-.05-.09-.16-.27c0-.06-.07-.13-.11-.2l-.2-.37-.22-.46a26.05,26.05,0,0,0-6.38-.54,55.7,55.7,0,0,0-7.52.76,38.36,38.36,0,0,0-7.54,1.93C286.88,232.24,285.43,233.08,284.91,234Zm23.16-32.91a23.37,23.37,0,0,0,2.21-6.57,22.92,22.92,0,0,0-.09-6.58,19.38,19.38,0,0,0-.59-2.53,23.36,23.36,0,0,0-8.14,4.28,19.16,19.16,0,0,1,6.61,11.4ZM300.62,219c.59-.59,1.19-1.22,1.77-1.89a19,19,0,0,0,3.33-5.66,18.53,18.53,0,0,0,1-3.3,22.69,22.69,0,0,0,.36-3.5,19,19,0,0,1-11.36,6.59,25.48,25.48,0,0,0,2,4.09A21.78,21.78,0,0,0,300.62,219Z"/><path class="cls-2" d="M291.68,246.58a31.31,31.31,0,0,0,2.83,5.8,13,13,0,0,0,3.36,3.78l.56.35.8-1.13a5.36,5.36,0,0,1-.57-.34c-2.13-1.44-4.31-4.95-5.81-8.94a25.36,25.36,0,0,1-1.35-5,5.27,5.27,0,0,1,.14-3.21l-1.08-.63a6.74,6.74,0,0,0-.28,4.15A26,26,0,0,0,291.68,246.58Z"/><path class="cls-2" d="M237.28,290.56l.63,1.08a5.27,5.27,0,0,1,3.21-.14,25.36,25.36,0,0,1,5,1.35c4,1.5,7.5,3.68,8.94,5.81a5.36,5.36,0,0,1,.34.57l1.13-.8c-.12-.2-.23-.38-.35-.56a13,13,0,0,0-3.78-3.36,31.31,31.31,0,0,0-5.8-2.83,26,26,0,0,0-5.15-1.4A6.67,6.67,0,0,0,237.28,290.56Z"/><path class="cls-2" d="M234,284.91l-.62-1.08c1-.61,2.66-.64,4.58-.47a33.38,33.38,0,0,1,6.72,1.58c4.86,1.57,10.29,4,13.95,7a19,19,0,0,1,.62-2.13,17.57,17.57,0,0,1-1.58-1.84,21.82,21.82,0,0,1-3.42-6.79c-.78.18-1.55.32-2.3.44s-1.52.14-2.24.17a21.68,21.68,0,0,1-4-.18c-2.35-.33-4.13-1.17-4.9-2.33.33-.21.67-.41,1-.64.56.83,2.07,1.47,4.21,1.76a22.71,22.71,0,0,0,7.88-.43,23.82,23.82,0,0,1-.66-5,22.09,22.09,0,0,1,.06-2.45c.06-.82.15-1.65.28-2.45h0l0-.09c.05-.31.11-.62.18-.92l1.63-1.42q-.25.82-.45,1.68a20.68,20.68,0,0,0,3.71.91,15.93,15.93,0,0,0,3.56.15,19.46,19.46,0,0,0,6.53-1.61,19.4,19.4,0,0,0,1.61-6.53,15.93,15.93,0,0,0-.15-3.56,20.68,20.68,0,0,0-.91-3.71q-.85.19-1.68.45l1.42-1.63c.3-.07.61-.13.92-.18l.09,0h0c.81-.13,1.64-.22,2.46-.28s1.62-.08,2.45-.06a23.82,23.82,0,0,1,5,.66,22.71,22.71,0,0,0,.43-7.88c-.29-2.14-.93-3.65-1.76-4.21.23-.31.43-.65.64-1,1.16.78,2,2.55,2.33,4.9a21.68,21.68,0,0,1,.18,4c0,.72-.09,1.47-.17,2.24s-.26,1.52-.44,2.3a21.82,21.82,0,0,1,6.79,3.42,17.57,17.57,0,0,1,1.84,1.58,19,19,0,0,1,2.13-.62c-3-3.66-5.45-9.09-7-13.95a33.38,33.38,0,0,1-1.58-6.72c-.17-1.92-.14-3.57.47-4.58l1.08.62a4.1,4.1,0,0,0-.43,1.92,8.51,8.51,0,0,0,0,1.31c0,.46.08,1,.16,1.49a39.64,39.64,0,0,0,2.12,7.51c1.8,4.91,4.16,9.4,6.73,12.16l.51,0,.43,0h.64l.47,0,.41,0h0l.14,0,.32,0h.06l.16,0,.27.05-.8,1.12-.3-.05-.39,0-.35,0h0l-.4,0c.16.13.32.27.49.39l.3.21.24.16-.8,1.12,0,0,0,0-.21-.14-.27-.19a12.8,12.8,0,0,1-1.58-1.41,15.88,15.88,0,0,0-2.22.45l.33.37.08.1.16.19.16.19.09.11.17.22.12.16.19.26.15.2.05.08c.08.1.15.21.22.31l.22.34,0,0,.1.17v0l.23.38.25.45,0,0-.92,1.17-.16-.32-.18-.33c-.06-.11-.12-.22-.19-.33l-.17-.29-.1-.17-.18-.28-.36-.54-.16-.21-.19-.26-.2-.25-.2-.25-.2-.25-.21-.24-.55-.6a13.3,13.3,0,0,0-5.11,3.74l-.18.21-.26.31-.07.09c-.08.09-.15.19-.23.29l-.18.26,0,0-.11.16-.2.3-.11.17-.11.2c-.08.12-.14.23-.21.35l-.18.36,0,.08v0l-.12.26-.09.19a1.08,1.08,0,0,0-.08.19l-.11.26c-.08.18-.14.37-.21.55l-.07.22c-.07.22-.14.44-.2.67l-.06.22-.05.2h0l-.08.36-.12.56-.05.28,0,.28,0,.17c0,.13,0,.26,0,.4v0l0,.37c0,.29,0,.57,0,.86v.8h0c0,.19,0,.37,0,.55h0l0,.31.06.42v0l.07.37.05.25v0l0,.18.09.35c0,.13.07.27.11.4l.11.33,0,.07-.38.4a13.55,13.55,0,0,1-.86-4.72,14.9,14.9,0,0,1,.84-4.81,13.41,13.41,0,0,1,3-5,13.83,13.83,0,0,1,4.43-3.33c-.41-.39-.85-.76-1.3-1.11a20.14,20.14,0,0,0-6.29-3.24c-.22.85-.48,1.71-.78,2.57a16.9,16.9,0,0,1-1.56,3.34,27,27,0,0,1-2.15,3.08,18.08,18.08,0,0,1-2.65,2.67,24.8,24.8,0,0,1-3,2.16c-.31.19-.62.36-.93.53s-.34.62-.53.93a24.8,24.8,0,0,1-2.16,3,18.08,18.08,0,0,1-2.67,2.65,25.1,25.1,0,0,1-3.09,2.15,16.56,16.56,0,0,1-3.33,1.56c-.86.3-1.72.56-2.57.78a20.14,20.14,0,0,0,3.24,6.29c.35.45.72.89,1.11,1.3a13.83,13.83,0,0,1,3.33-4.43,13.58,13.58,0,0,1,5-3,15,15,0,0,1,4.82-.84,13.55,13.55,0,0,1,4.72.86l-.4.38-.07,0-.33-.11-.4-.11-.35-.09-.18,0h0l-.25-.05-.37-.07h0l-.42-.06-.31,0h0l-.55,0h-.8c-.29,0-.57,0-.86,0l-.37,0h0l-.4,0-.17,0-.28,0-.28.05-.56.12-.36.08h0l-.2.05-.22.06-.67.2-.22.07c-.19.07-.37.13-.55.21l-.27.11-.18.08-.19.09-.26.12h0l-.08,0-.36.19a3.12,3.12,0,0,0-.35.2l-.2.12-.17.1-.3.2-.16.11,0,0-.25.19a3.15,3.15,0,0,0-.29.22l-.09.07-.31.26-.21.18a13.3,13.3,0,0,0-3.74,5.11l.6.55.24.21.24.2.25.2.26.2.26.19.21.16.54.36.28.18.17.1.29.17.33.19.33.18.32.16-1.17.92,0,0-.45-.25-.38-.23h0l-.17-.1,0,0-.34-.22-.31-.22-.08-.05-.2-.15-.26-.19-.16-.12-.22-.17-.11-.09-.19-.16-.19-.16-.1-.08-.37-.33a15.88,15.88,0,0,0-.45,2.22,13.67,13.67,0,0,1,1.41,1.58l.19.27.14.21,0,0,0,0-1.12.8-.16-.24-.21-.3c-.12-.17-.26-.33-.39-.49l0,.4v0l0,.35,0,.39.05.3-1.13.8,0-.27,0-.16v-.06l0-.32V296l0-.4,0-.48v-.64l0-.43,0-.51c-2.76-2.57-7.25-4.93-12.16-6.73a39.64,39.64,0,0,0-7.51-2.12c-.53-.08-1-.13-1.49-.16a8.51,8.51,0,0,0-1.31,0A4.1,4.1,0,0,0,234,284.91Zm36.5-17a22.47,22.47,0,0,0,2.83-2.09c.44-.38.86-.78,1.27-1.18s.75-.87,1.11-1.32a20.55,20.55,0,0,0,3.23-5.72c.29-.83.54-1.67.75-2.48a23.3,23.3,0,0,0-9.17-.37,21.36,21.36,0,0,1,1.17,6.69A19.28,19.28,0,0,1,270.51,267.93ZM255.14,279.7c.81-.21,1.65-.46,2.48-.75a20.55,20.55,0,0,0,5.72-3.23c.45-.36.89-.72,1.32-1.11s.8-.83,1.18-1.27a22.47,22.47,0,0,0,2.09-2.83,19.28,19.28,0,0,1-6.47,1.19,21.36,21.36,0,0,1-6.69-1.17A23.3,23.3,0,0,0,255.14,279.7Z"/><path class="cls-2" d="M233.62,299.17c-.76,4.52-.63,8.84.6,11.41.09.19.2.39.31.58.42-.18.83-.4,1.24-.6a5.57,5.57,0,0,1-.32-.58c-1.13-2.32-1.26-6.43-.57-10.63.67-3.79,1.78-7,3-7.71l-.63-1.08A6.46,6.46,0,0,0,235,294,27.81,27.81,0,0,0,233.62,299.17Z"/><path class="cls-2" d="M164.53,310.07v1.24c1.42,0,4,2.08,6.48,5.14a31.4,31.4,0,0,1,3.35,5,11.83,11.83,0,0,1,1.46,4.45c0,.21,0,.43,0,.66l1.37-.1c0-.23,0-.45,0-.67-.23-2.87-2.27-6.61-5.18-10.1C169.76,312.94,166.75,310,164.53,310.07Z"/><path class="cls-2" d="M164.53,303.54v-1.25a7.41,7.41,0,0,1,4.2,1.83,40.58,40.58,0,0,1,5,4.74c3.42,3.76,6.91,8.72,8.54,13.08a13.77,13.77,0,0,1,1.6-1.55,20.8,20.8,0,0,1-.44-2.38,21.53,21.53,0,0,1,.45-7.58,29.36,29.36,0,0,1-4.23-1.71,19.89,19.89,0,0,1-3.34-2.18c-1.87-1.52-3-3.09-3.07-4.48l1.17-.08c.12,2,4,5.42,9.8,7.25a25.69,25.69,0,0,1,4.68-8.73h0l.07-.07c.2-.24.4-.47.61-.7l2.13-.37q-.63.57-1.23,1.2a20.27,20.27,0,0,0,2.75,2.67,19.46,19.46,0,0,0,3,1.88,19.07,19.07,0,0,0,3.18,1.25c.54.16,1.09.29,1.64.41s1.09.15,1.63.2a19.38,19.38,0,0,0,4.68-4.79,19.93,19.93,0,0,0,2.7-6.85c-.56-.18-1.12-.33-1.68-.46l2.05-.69c.3.09.59.2.89.31l.09,0h0a24,24,0,0,1,8.4,5.22,23.51,23.51,0,0,0,4.3-6.62c.83-2,1-3.62.58-4.54l1-.53a4.47,4.47,0,0,1,.36,2.34,10.14,10.14,0,0,1-.77,3.08A21.5,21.5,0,0,1,223.5,297a24.25,24.25,0,0,1-2.79,3.65,21.68,21.68,0,0,1,4.18,6.35,20.17,20.17,0,0,1,.81,2.29,13.28,13.28,0,0,1,2.14.5,32.19,32.19,0,0,1-.26-7.67,63.45,63.45,0,0,1,1.13-7.92,33.13,33.13,0,0,1,2-6.59c.78-1.81,1.65-3.17,2.68-3.75l.62,1.08c-.93.52-1.77,2-2.53,4a39.14,39.14,0,0,0-1.92,7.54,55.7,55.7,0,0,0-.76,7.52,26.05,26.05,0,0,0,.54,6.38l.46.22.37.2.2.11.27.16.09.05.41.26.33.23,0,0,.12.08.26.2,0,0h0l.13.11.21.17-1.25.57-.24-.19-.32-.23-.29-.2,0,0-.34-.22c.07.2.14.4.22.58a3.54,3.54,0,0,1,.16.34l.13.25-1.25.57,0,0,0,0-.11-.23-.13-.3a13.16,13.16,0,0,1-.67-2,14.06,14.06,0,0,0-2.14-.69l.1.49,0,.13,0,.24,0,.24,0,.15,0,.27,0,.2,0,.32a1.94,1.94,0,0,0,0,.24s0,.06,0,.1l0,.38c0,.13,0,.27,0,.4v1.26l-1.38.55v-.73c0-.13,0-.25,0-.38v-.54l0-.33c0-.21,0-.42,0-.64l0-.27,0-.31,0-.32-.05-.32,0-.31-.06-.31c-.05-.27-.11-.53-.18-.79a12.39,12.39,0,0,0-6.29.69l-.27.1-.37.13-.11,0-.34.14-.29.13h0l-.18.09-.32.15-.18.1-.21.11-.35.2-.34.22-.07.05h0l-.24.16-.17.12-.16.12-.23.17c-.16.12-.31.25-.45.37l-.18.16c-.17.15-.35.31-.51.47l-.16.16-.14.15h0l-.25.27-.38.44-.18.22-.18.23-.1.14-.24.33,0,0-.22.3q-.24.35-.45.72c-.06.09-.11.18-.16.27l-.11.2-.12.23h0c-.09.16-.16.33-.24.49h0l-.12.28-.16.39v0l-.13.35-.08.24v0l-.05.18-.11.35-.1.4c0,.11,0,.22-.07.33v.07l-.54.15a14.13,14.13,0,0,1,4.76-8.27,14.76,14.76,0,0,1,5.11-2.82,13.84,13.84,0,0,1,5.52-.65c-.17-.54-.36-1.08-.58-1.61a20.48,20.48,0,0,0-3.84-5.95c-.61.62-1.27,1.23-2,1.82a20.4,20.4,0,0,1-6.42,3.71,20.84,20.84,0,0,1-7.32,1.35l-1.07,0c-.3.2-.6.39-.92.58a21.86,21.86,0,0,1-14.43,2.47,23,23,0,0,1-2.61-.62,19.93,19.93,0,0,0-.35,7c.07.57.18,1.14.3,1.69A14.51,14.51,0,0,1,196,317.3a13.42,13.42,0,0,1,8.25,4.78l-.54.12-.05-.05-.23-.26-.29-.3-.26-.26-.14-.12,0,0-.19-.17-.29-.25,0,0-.32-.26-.25-.19h0l-.45-.32h0l-.22-.14-.2-.12-.27-.16c-.24-.15-.5-.28-.76-.41l-.33-.16,0,0-.37-.16-.16-.06-.27-.11-.27-.1-.54-.17-.35-.1h0l-.19-.05-.23,0c-.22-.06-.44-.1-.67-.14l-.23,0-.57-.1-.29-.05-.2,0-.21,0-.29,0h-.11l-.4,0h-1.2l-.2,0h0l-.31,0-.37,0-.11,0-.4.06-.27,0a13.77,13.77,0,0,0-3.09,1,12.6,12.6,0,0,0-2.71,1.57c.08.27.16.52.24.78l.11.3.11.3.11.3.13.3.12.29.11.25c.1.19.19.39.28.58l.16.3.09.18.17.29c.06.11.12.22.19.33l.2.32.19.3-1.47.19,0,0-.27-.45-.21-.39a0,0,0,0,1,0,0l-.09-.18,0-.05-.18-.36a3.73,3.73,0,0,1-.16-.35.2.2,0,0,1,0-.08l-.11-.23-.12-.29-.08-.19-.1-.26-.06-.13-.08-.23-.08-.24,0-.12-.15-.47a12.16,12.16,0,0,0-1.51,1.7,13.15,13.15,0,0,1,.43,2.07l0,.32,0,.26v.07l-1.37.18v-.29l0-.37c0-.2-.06-.41-.09-.62l-.18.37,0,0-.15.32c-.05.12-.1.24-.16.36l-.11.29-1.37.1.09-.25.06-.15v0l0,0,.12-.3.06-.13,0,0c.06-.13.11-.25.17-.37l.22-.42.06-.1.15-.26.11-.19c.08-.12.16-.24.23-.36l.29-.43c-1.09-3.56-3.8-8-7.14-12a47.38,47.38,0,0,0-5.44-5.6C167.05,304.28,165.6,303.51,164.53,303.54Zm40.09,3.55a22.69,22.69,0,0,0,3.5-.36,21,21,0,0,0,9-4.34c.67-.58,1.3-1.18,1.89-1.77a22.19,22.19,0,0,0-3.67-2.87,25.48,25.48,0,0,0-4.09-2A19,19,0,0,1,204.62,307.09Zm-19.2,2.51a19.38,19.38,0,0,0,2.53.59,22.92,22.92,0,0,0,6.58.09,23.37,23.37,0,0,0,6.57-2.21,19.16,19.16,0,0,1-11.4-6.61A23.36,23.36,0,0,0,185.42,309.6Z"/><path class="cls-2" d="M157,315.69c-2.91,3.49-4.95,7.23-5.18,10.1,0,.22,0,.44,0,.67l1.37.1c0-.23,0-.45,0-.66a12,12,0,0,1,1.46-4.45,31.4,31.4,0,0,1,3.35-5c2.48-3.06,5.06-5.17,6.49-5.14v-1.24C162.3,310,159.29,312.94,157,315.69Z"/><path class="cls-2" d="M91.77,290.56l-.62,1.08c1.24.7,2.35,3.92,3,7.71.7,4.2.56,8.31-.57,10.63-.09.19-.2.39-.31.58.4.2.81.42,1.23.6a5.45,5.45,0,0,0,.31-.58c1.23-2.57,1.36-6.89.6-11.41A27.81,27.81,0,0,0,94.08,294,6.46,6.46,0,0,0,91.77,290.56Z"/><path class="cls-2" d="M95,284.91l.62-1.08c1,.58,1.9,1.94,2.68,3.75a33.23,33.23,0,0,1,2,6.58,63.88,63.88,0,0,1,1.13,7.93,32.19,32.19,0,0,1-.26,7.67,13.28,13.28,0,0,1,2.14-.5,20.17,20.17,0,0,1,.81-2.29,21.55,21.55,0,0,1,4.18-6.35,24.25,24.25,0,0,1-2.79-3.65,21.5,21.5,0,0,1-1.82-3.51,10.14,10.14,0,0,1-.77-3.08,4.47,4.47,0,0,1,.36-2.34l1,.53c-.44.92-.25,2.56.58,4.54a21.88,21.88,0,0,0,1.69,3.21,21.06,21.06,0,0,0,2.61,3.41,24,24,0,0,1,8.4-5.22h0l.09,0c.3-.11.59-.22.89-.31l2,.69c-.56.13-1.12.28-1.68.46a19.93,19.93,0,0,0,2.7,6.85,19.38,19.38,0,0,0,4.68,4.79c.54,0,1.09-.1,1.63-.2s1.1-.25,1.64-.41a18.8,18.8,0,0,0,6.18-3.13,20.27,20.27,0,0,0,2.75-2.67q-.6-.63-1.23-1.2l2.13.37c.21.23.41.46.61.7l.07.07h0a25.69,25.69,0,0,1,4.68,8.73c5.81-1.83,9.68-5.28,9.81-7.25l1.16.08c-.09,1.39-1.19,3-3.07,4.48a19.89,19.89,0,0,1-3.34,2.18,29.36,29.36,0,0,1-4.23,1.71,21.53,21.53,0,0,1,.45,7.58,20.8,20.8,0,0,1-.44,2.38,13.77,13.77,0,0,1,1.6,1.55c1.63-4.36,5.12-9.32,8.54-13.08a40.58,40.58,0,0,1,5-4.74,7.41,7.41,0,0,1,4.21-1.83v1.25c-1.08,0-2.53.74-4.2,2.11a47.38,47.38,0,0,0-5.44,5.6c-3.34,4-6,8.41-7.14,12l.29.43.23.36.11.19.15.26.06.1.22.42c.06.12.12.24.17.37l0,0,.06.13.12.3,0,0v0l.06.15.09.25-1.37-.1-.11-.29c-.06-.12-.11-.24-.16-.36l-.15-.32,0,0-.18-.37c0,.21-.07.42-.09.62l0,.37v.29l-1.37-.18v-.07l0-.26,0-.32a13.15,13.15,0,0,1,.43-2.07,12.16,12.16,0,0,0-1.51-1.7l-.15.47,0,.12-.09.23-.08.24-.06.13-.1.26-.08.19-.12.29-.11.23a.2.2,0,0,1,0,.08,3.73,3.73,0,0,1-.16.35l-.18.36,0,.05-.09.18a0,0,0,0,1,0,0l-.21.39-.27.45,0,0-1.47-.19.19-.3.2-.32c.07-.11.13-.22.19-.33l.17-.29.09-.18.16-.3.28-.58.11-.25.13-.29.12-.3.11-.3.11-.3.11-.3.24-.78A12.6,12.6,0,0,0,141,319a13.77,13.77,0,0,0-3.09-1l-.27,0-.4-.06-.11,0-.37,0-.31,0h0l-.2,0H135l-.4,0h-.11l-.29,0-.21,0-.2,0-.29.05a5.67,5.67,0,0,0-.57.1l-.23,0c-.23,0-.45.08-.67.14l-.23,0-.19.05h0l-.35.1-.54.17-.27.1-.27.11-.15.06-.37.16,0,0-.34.16c-.26.13-.51.26-.76.41l-.27.16-.19.12-.23.14h0l-.45.32h0l-.25.19-.32.26,0,0-.29.25-.19.17,0,0-.14.12-.26.26-.29.3-.23.26,0,.05-.54-.12A13.42,13.42,0,0,1,133,317.3a14.51,14.51,0,0,1,11,2.23c.13-.55.23-1.12.31-1.69a20.15,20.15,0,0,0-.36-7,22.54,22.54,0,0,1-2.61.62A21.86,21.86,0,0,1,126.9,309c-.32-.19-.62-.38-.92-.58l-1.07,0a20.84,20.84,0,0,1-7.32-1.35,20.4,20.4,0,0,1-6.42-3.71c-.69-.59-1.35-1.2-2-1.82a20.48,20.48,0,0,0-3.84,5.95c-.22.53-.41,1.07-.58,1.61a13.84,13.84,0,0,1,5.52.65,14.76,14.76,0,0,1,5.11,2.82,14.13,14.13,0,0,1,4.76,8.27l-.54-.15v-.07c0-.11,0-.22-.07-.33s-.07-.27-.1-.4l-.1-.35-.06-.18v0l-.08-.24-.13-.35v0c0-.13-.1-.26-.16-.39l-.12-.28h0c-.08-.16-.15-.33-.24-.49h0l-.12-.23-.11-.2-.16-.27q-.21-.37-.45-.72l-.22-.3,0,0-.24-.33-.1-.14-.18-.23-.18-.22-.38-.44-.25-.27h0L116,314l-.16-.16c-.16-.16-.34-.32-.51-.47l-.18-.16c-.14-.12-.29-.25-.45-.37l-.23-.17-.16-.12-.17-.12-.24-.16h0l-.07-.05-.34-.22-.35-.2-.21-.11-.18-.1-.32-.15-.18-.09h0l-.29-.13-.34-.14-.1,0-.38-.13-.27-.1a12.39,12.39,0,0,0-6.29-.69c-.07.26-.13.52-.18.79l-.06.31,0,.31,0,.32,0,.32,0,.31,0,.27c0,.22,0,.43,0,.64s0,.23,0,.33v.54c0,.13,0,.25,0,.38V315l0,.35-1.39-.55V313.5l0-.4,0-.38s0-.07,0-.1l0-.24,0-.32,0-.2,0-.27,0-.15,0-.24,0-.24,0-.13.1-.49a14.06,14.06,0,0,0-2.14.69,13.16,13.16,0,0,1-.67,2l-.13.3-.11.23,0,0,0,0-1.25-.57.13-.25.16-.34c.08-.18.15-.38.22-.58l-.33.22,0,0-.29.19-.32.24-.24.19-1.25-.57L97,312l.13-.11h0l0,0,.27-.2.11-.08,0,0,.34-.23.4-.26.09-.05.27-.16.2-.11.37-.2.46-.22a26.05,26.05,0,0,0,.54-6.38,55.7,55.7,0,0,0-.76-7.52,39.14,39.14,0,0,0-1.92-7.54C96.81,286.88,96,285.43,95,284.91ZM128,308.07a23.32,23.32,0,0,0,6.58,2.21,22.86,22.86,0,0,0,6.57-.09,19,19,0,0,0,2.53-.59,23.36,23.36,0,0,0-4.28-8.14,19.16,19.16,0,0,1-11.4,6.61Zm-17.87-7.45c.59.59,1.22,1.19,1.89,1.77a21.4,21.4,0,0,0,9,4.34,22.69,22.69,0,0,0,3.5.36,19,19,0,0,1-6.59-11.36,25.48,25.48,0,0,0-4.09,2A22.19,22.19,0,0,0,110.08,300.62Z"/><path class="cls-2" d="M82.47,291.68a31.31,31.31,0,0,0-5.8,2.83,13,13,0,0,0-3.78,3.36c-.12.18-.23.36-.35.56l1.13.8a5.36,5.36,0,0,1,.34-.57c1.44-2.13,4.95-4.31,8.94-5.81a25.25,25.25,0,0,1,5-1.35,5.27,5.27,0,0,1,3.21.14l.62-1.08a6.74,6.74,0,0,0-4.15-.28A26,26,0,0,0,82.47,291.68Z"/><path class="cls-2" d="M38.5,237.28l-1.08.63a5.43,5.43,0,0,1,.14,3.21,26.17,26.17,0,0,1-1.36,5c-1.5,4-3.68,7.5-5.81,8.94a5.36,5.36,0,0,1-.57.34l.8,1.13.56-.35a13,13,0,0,0,3.36-3.78,31.31,31.31,0,0,0,2.83-5.8,26,26,0,0,0,1.4-5.15A6.75,6.75,0,0,0,38.5,237.28Z"/><path class="cls-2" d="M44.15,234l1.08-.62c.6,1,.63,2.66.46,4.58a33.3,33.3,0,0,1-1.57,6.72c-1.57,4.86-4,10.29-7,13.95a19,19,0,0,1,2.13.62,17.57,17.57,0,0,1,1.84-1.58,21.82,21.82,0,0,1,6.79-3.42c-.18-.78-.32-1.55-.44-2.3s-.14-1.52-.17-2.24a21.68,21.68,0,0,1,.18-4c.33-2.35,1.17-4.13,2.33-4.9.22.33.41.67.64,1-.83.56-1.47,2.07-1.75,4.21a22.44,22.44,0,0,0,.42,7.88,23.82,23.82,0,0,1,5-.66,22.33,22.33,0,0,1,2.46.06c.81.06,1.64.15,2.45.28h0l.09,0c.31.05.62.11.92.18l1.42,1.63q-.82-.25-1.68-.45a20.68,20.68,0,0,0-.91,3.71,15.93,15.93,0,0,0-.15,3.56,19.7,19.7,0,0,0,1.61,6.53,19.7,19.7,0,0,0,6.53,1.61,15.93,15.93,0,0,0,3.56-.15,20.68,20.68,0,0,0,3.71-.91q-.19-.85-.45-1.68l1.63,1.42c.07.3.13.61.18.92l0,.09h0c.13.81.22,1.64.28,2.46a22.09,22.09,0,0,1,.06,2.45,23.82,23.82,0,0,1-.66,5,22.71,22.71,0,0,0,7.88.43c2.14-.29,3.65-.93,4.21-1.76.31.23.65.43,1,.64-.77,1.16-2.54,2-4.9,2.33a21.68,21.68,0,0,1-4,.18c-.72,0-1.47-.09-2.24-.17s-1.52-.26-2.3-.44A21.61,21.61,0,0,1,71.37,288a17.57,17.57,0,0,1-1.58,1.84,19,19,0,0,1,.62,2.13c3.66-3,9.09-5.45,14-7a33.38,33.38,0,0,1,6.72-1.58c1.92-.17,3.57-.14,4.58.47L95,284.91a4.1,4.1,0,0,0-1.92-.43,8.51,8.51,0,0,0-1.31,0c-.46,0-1,.08-1.49.16a39.64,39.64,0,0,0-7.51,2.12c-4.91,1.8-9.4,4.16-12.16,6.73,0,.17,0,.34,0,.51s0,.28,0,.43v.64c0,.15,0,.31,0,.47l0,.41v.18l0,.32v.06l0,.16c0,.09,0,.18,0,.27l-1.12-.8,0-.3,0-.39c0-.12,0-.23,0-.35v0c0-.13,0-.27,0-.4a5.85,5.85,0,0,0-.38.49l-.22.3-.15.24-1.13-.8,0,0,0,0,.14-.21.19-.27a13.67,13.67,0,0,1,1.41-1.58,15.88,15.88,0,0,0-.45-2.22l-.37.33-.1.08-.19.16-.19.16-.11.09-.22.17-.16.12-.26.19-.2.15-.07.05-.32.22-.34.22,0,0-.17.1h0l-.38.23-.45.25,0,0-1.17-.92.32-.16.33-.18.33-.19.29-.17.17-.1.28-.18.54-.36.22-.16.25-.19.26-.2.25-.2.24-.2.24-.21.6-.55a13.3,13.3,0,0,0-3.74-5.11l-.21-.18-.31-.26-.09-.07-.29-.23-.25-.18,0,0-.16-.11-.3-.2-.17-.11-.2-.12-.35-.2-.36-.18-.08,0h0l-.26-.12L61.5,282l-.18-.08-.27-.11c-.18-.08-.36-.14-.55-.21l-.22-.07-.67-.2-.22-.06-.2-.05h0l-.36-.08-.56-.12L58,281l-.28,0-.17,0-.4,0h0l-.37,0c-.29,0-.57,0-.86,0h-.8l-.55,0h0l-.31,0-.41.06h0l-.37.07-.25.05h0l-.18,0-.35.09-.4.11-.33.11-.07,0-.4-.38a13.57,13.57,0,0,1,4.73-.86,15,15,0,0,1,4.81.84,13.45,13.45,0,0,1,5,3,13.83,13.83,0,0,1,3.33,4.43c.39-.41.76-.85,1.11-1.3a20.14,20.14,0,0,0,3.24-6.29c-.85-.22-1.71-.48-2.57-.78a16.56,16.56,0,0,1-3.33-1.56,26.24,26.24,0,0,1-3.09-2.15,18.08,18.08,0,0,1-2.67-2.65,24.8,24.8,0,0,1-2.16-3c-.19-.31-.36-.62-.53-.93s-.62-.34-.93-.53a24.8,24.8,0,0,1-3-2.16,18.08,18.08,0,0,1-2.65-2.67,26.24,26.24,0,0,1-2.15-3.09A16.56,16.56,0,0,1,48.93,258c-.3-.86-.56-1.72-.78-2.57a20.14,20.14,0,0,0-6.29,3.24c-.45.35-.89.72-1.3,1.11A13.83,13.83,0,0,1,45,263.15a13.45,13.45,0,0,1,3,5,14.73,14.73,0,0,1,.84,4.82,13.55,13.55,0,0,1-.86,4.72l-.38-.4,0-.07.11-.33c0-.13.07-.27.11-.4l.09-.35,0-.18v0l0-.25c0-.12.05-.25.07-.37v0l.06-.42a2.91,2.91,0,0,0,0-.31h0c0-.18,0-.36,0-.55h0v-.8c0-.29,0-.57,0-.86l0-.37v0c0-.14,0-.27,0-.4l0-.17,0-.28-.05-.28-.12-.56-.08-.36h0l-.05-.2-.06-.22c-.06-.23-.13-.45-.2-.67l-.07-.22c-.07-.19-.13-.37-.21-.55l-.11-.27a1.42,1.42,0,0,0-.08-.18l-.09-.19-.12-.26v0l0-.08-.19-.36-.2-.35-.12-.2-.11-.17-.2-.3-.11-.16,0,0-.18-.25c-.08-.1-.15-.2-.23-.29l-.07-.09-.26-.31-.18-.21a13.3,13.3,0,0,0-5.11-3.74l-.55.6-.21.24-.2.24-.2.25-.2.26-.19.26-.16.21-.36.54-.18.28-.1.17-.17.29c-.07.11-.13.22-.19.33l-.18.33-.16.32-.92-1.17,0,0,.25-.45.23-.38v0l.1-.17,0,0a4,4,0,0,0,.22-.34c.07-.1.14-.21.22-.31l.05-.08.15-.2.19-.26.12-.16.17-.22.09-.11.16-.19.16-.19.08-.1.33-.37a15.88,15.88,0,0,0-2.22-.45A13.67,13.67,0,0,1,34.64,261l-.27.19-.21.14,0,0,0,0-.8-1.12.24-.16.31-.21.48-.39-.4,0h0l-.35,0-.39,0-.3.05-.8-1.13.27,0,.16,0h.06l.32,0h.18l.41,0,.48,0h.64l.42,0,.51,0c2.57-2.76,4.94-7.25,6.73-12.16a39.64,39.64,0,0,0,2.12-7.51c.08-.53.13-1,.16-1.49a8.51,8.51,0,0,0,0-1.31A4.24,4.24,0,0,0,44.15,234Zm17,36.5a22.47,22.47,0,0,0,2.09,2.83c.38.44.78.86,1.19,1.27s.86.75,1.31,1.11A20.7,20.7,0,0,0,71.43,279c.83.29,1.67.54,2.48.75a23.11,23.11,0,0,0,.37-9.17,21.36,21.36,0,0,1-6.69,1.17A19.28,19.28,0,0,1,61.12,270.51ZM49.35,255.14c.21.81.46,1.65.75,2.48a20.55,20.55,0,0,0,3.23,5.72c.36.45.72.89,1.11,1.32s.83.8,1.27,1.18a22.47,22.47,0,0,0,2.83,2.09,19.28,19.28,0,0,1-1.19-6.47,21.09,21.09,0,0,1,1.18-6.69A23.34,23.34,0,0,0,49.35,255.14Z"/><path class="cls-2" d="M29.88,233.62c-4.52-.76-8.84-.63-11.41.6-.19.09-.39.2-.58.31.18.42.4.83.6,1.24.2-.12.39-.23.58-.32,2.32-1.13,6.44-1.26,10.63-.57,3.79.67,7,1.78,7.72,3l1.08-.63A6.53,6.53,0,0,0,35,235,27.81,27.81,0,0,0,29.88,233.62Z"/><path class="cls-2" d="M19,164.53H17.74c0,1.42-2.08,4-5.14,6.48a31.4,31.4,0,0,1-5,3.35,11.83,11.83,0,0,1-4.45,1.46c-.21,0-.43,0-.66,0l.11,1.37.66,0c2.87-.23,6.61-2.27,10.1-5.18C16.12,169.76,19,166.75,19,164.53Z"/><path class="cls-2" d="M25.51,164.53h1.25a7.41,7.41,0,0,1-1.83,4.2,40.58,40.58,0,0,1-4.74,5c-3.76,3.42-8.71,6.91-13.08,8.54a13.77,13.77,0,0,1,1.55,1.6,20.8,20.8,0,0,1,2.38-.44,21.51,21.51,0,0,1,7.58.45,30.55,30.55,0,0,1,1.71-4.23,19.89,19.89,0,0,1,2.18-3.34c1.52-1.87,3.09-3,4.48-3.07l.09,1.17c-2,.12-5.43,4-7.26,9.8a22.74,22.74,0,0,1,4.62,1.93,22.5,22.5,0,0,1,4.11,2.75h0l.06.07.7.61.37,2.13q-.57-.63-1.2-1.23a20.88,20.88,0,0,0-2.67,2.75,19.46,19.46,0,0,0-1.88,3,20,20,0,0,0-1.25,3.18c-.16.54-.29,1.09-.41,1.64s-.15,1.09-.2,1.63a19.38,19.38,0,0,0,4.79,4.68,19.93,19.93,0,0,0,6.85,2.7c.18-.56.33-1.12.46-1.68l.69,2.05c-.09.3-.2.59-.31.89l0,.09h0a23.83,23.83,0,0,1-5.22,8.4,23.51,23.51,0,0,0,6.62,4.3c2,.83,3.62,1,4.54.58l.53,1a4.47,4.47,0,0,1-2.34.36,10.21,10.21,0,0,1-3.08-.77,21.5,21.5,0,0,1-3.51-1.82,24.25,24.25,0,0,1-3.65-2.79,21.55,21.55,0,0,1-6.35,4.18,20.17,20.17,0,0,1-2.29.81,13.28,13.28,0,0,1-.5,2.14,32.19,32.19,0,0,1,7.67-.26,63.88,63.88,0,0,1,7.93,1.13,32.82,32.82,0,0,1,6.58,2c1.81.78,3.18,1.65,3.75,2.68l-1.07.62c-.53-.93-2-1.77-4-2.53a39.14,39.14,0,0,0-7.54-1.92,55.7,55.7,0,0,0-7.52-.76,26.05,26.05,0,0,0-6.38.54l-.22.46-.2.37c0,.07-.07.14-.11.2l-.16.27-.05.09-.26.41-.23.33,0,0-.08.12-.2.26,0,0v0l-.11.13-.17.21L16.29,231l.19-.24.24-.32a2.9,2.9,0,0,0,.19-.29l0,0,.22-.34-.58.22-.34.16-.25.13-.57-1.25,0,0,0,0,.23-.11.3-.13a13.16,13.16,0,0,1,2-.67,14.06,14.06,0,0,0,.69-2.14l-.49.1-.13,0-.24,0-.24,0-.15,0-.27,0-.2,0-.32,0-.24,0h-.1l-.38,0-.4,0H14.29L13.74,225h1.65l.33,0,.64,0,.27,0,.32,0,.31,0,.32-.05.32,0,.31-.06.78-.18a12.39,12.39,0,0,0-.69-6.29l-.1-.27-.13-.37s0-.07,0-.11-.09-.23-.14-.34l-.13-.29s0,0,0,0l-.08-.18-.16-.32-.1-.18-.11-.21c-.06-.12-.13-.23-.2-.35l-.22-.34,0-.07,0,0-.16-.24-.12-.17-.12-.16-.17-.23a5.54,5.54,0,0,0-.37-.45l-.16-.18c-.15-.17-.3-.35-.47-.51l-.16-.16-.15-.14h0l-.26-.25-.45-.38L14,212.1l-.23-.18-.14-.1-.33-.24,0,0-.3-.22q-.35-.24-.72-.45l-.27-.16-.2-.11-.23-.12h0c-.16-.09-.33-.16-.49-.24h0l-.28-.12-.39-.16h0l-.35-.13-.24-.08h0l-.18-.05-.35-.11-.4-.1-.33-.07H8.39l-.15-.54a14.13,14.13,0,0,1,8.27,4.76,14.76,14.76,0,0,1,2.82,5.11,13.84,13.84,0,0,1,.65,5.52c.54-.17,1.08-.36,1.61-.58a20.35,20.35,0,0,0,5.95-3.84c-.62-.61-1.23-1.27-1.82-2A20.4,20.4,0,0,1,22,211.46a20.6,20.6,0,0,1-1.34-7.32c0-.36,0-.72,0-1.07-.2-.3-.39-.6-.58-.92a21.86,21.86,0,0,1-2.47-14.43,23,23,0,0,1,.62-2.61,19.92,19.92,0,0,0-7-.35c-.57.07-1.14.18-1.69.3A14.51,14.51,0,0,1,11.75,196,13.38,13.38,0,0,1,7,204.26l-.12-.54.05-.05.26-.23.3-.29.26-.26.12-.14s0,0,0,0l.18-.19.24-.29,0,0,.26-.32.19-.25h0l.32-.45h0l.14-.22.12-.2.16-.27c.15-.24.28-.5.41-.76l.16-.33,0,0,.16-.38.06-.15.11-.27.1-.27.18-.54.09-.35h0l.05-.19a1.89,1.89,0,0,0,.05-.23c.06-.22.1-.44.14-.67l0-.23a5.67,5.67,0,0,0,.1-.57l.05-.29a1.36,1.36,0,0,0,0-.2l0-.21,0-.29v-.11c0-.13,0-.27,0-.4s0-.27,0-.41v-.79l0-.2v0l0-.31c0-.12,0-.25,0-.37a.43.43,0,0,0,0-.11l-.06-.4-.05-.27a13.28,13.28,0,0,0-1-3.09,12.6,12.6,0,0,0-1.57-2.71l-.78.24-.29.11-.31.11-.3.11-.3.13-.29.12-.25.11-.58.28-.3.16-.18.09-.29.17-.33.19-.32.2-.3.19-.19-1.47,0,0,.45-.27.39-.21s0,0,0,0l.17-.09,0,0,.36-.18.35-.16.08,0,.23-.11.29-.12.19-.08.26-.1.13-.06.24-.08.23-.08.12,0,.48-.15a12.84,12.84,0,0,0-1.71-1.51,13.27,13.27,0,0,1-2.06.43l-.33,0-.25,0H3.16L3,181.81h.29l.37,0,.62-.09-.37-.18,0,0-.32-.15-.36-.16-.29-.11-.1-1.37.25.09.15.06h0l0,0,.3.12.12.06,0,0,.36.17.42.22.1.06.26.15.19.11.36.23.43.29c3.56-1.09,8-3.8,12-7.14a47.38,47.38,0,0,0,5.6-5.44C24.77,167.05,25.54,165.6,25.51,164.53ZM22,204.62a22.69,22.69,0,0,0,.36,3.5,18.53,18.53,0,0,0,1,3.3,18.78,18.78,0,0,0,3.34,5.66c.57.67,1.17,1.3,1.76,1.89a22.19,22.19,0,0,0,2.87-3.67,26.39,26.39,0,0,0,2-4.09A19,19,0,0,1,22,204.62Zm-2.51-19.2a19.38,19.38,0,0,0-.59,2.53,22.92,22.92,0,0,0-.09,6.58A23.37,23.37,0,0,0,21,201.1a20.26,20.26,0,0,1,2.25-6.21,19.93,19.93,0,0,1,4.36-5.19A23.36,23.36,0,0,0,19.45,185.42Z"/><path class="cls-2" d="M13.36,157c-3.49-2.91-7.23-4.95-10.1-5.18l-.66,0-.11,1.37c.23,0,.45,0,.66,0a12,12,0,0,1,4.45,1.46,31.4,31.4,0,0,1,5,3.35c3.06,2.48,5.17,5.06,5.14,6.49H19C19,162.3,16.12,159.29,13.36,157Z"/><path class="cls-2" d="M38.5,91.77l-1.08-.62c-.7,1.24-3.93,2.35-7.72,3-4.19.7-8.31.56-10.63-.57-.19-.09-.38-.2-.58-.31-.2.4-.42.81-.6,1.23a5.45,5.45,0,0,0,.58.31c2.57,1.23,6.89,1.36,11.41.6A27.81,27.81,0,0,0,35,94.08,6.53,6.53,0,0,0,38.5,91.77Z"/><path class="cls-2" d="M44.15,95l1.08.62c-.58,1-1.95,1.9-3.76,2.68a32.82,32.82,0,0,1-6.58,2A63.88,63.88,0,0,1,27,101.47a32.19,32.19,0,0,1-7.67-.26,13.28,13.28,0,0,1,.5,2.14,19.5,19.5,0,0,1,2.29.81,21.55,21.55,0,0,1,6.35,4.18,24.25,24.25,0,0,1,3.65-2.79,21.5,21.5,0,0,1,3.51-1.82,10.21,10.21,0,0,1,3.08-.77,4.47,4.47,0,0,1,2.34.36l-.53,1c-.92-.44-2.56-.25-4.54.58a22.4,22.4,0,0,0-3.21,1.69,21.5,21.5,0,0,0-3.41,2.61,23.83,23.83,0,0,1,5.22,8.4h0l0,.09c.11.3.22.59.31.89l-.69,2c-.13-.56-.28-1.12-.46-1.68a19.93,19.93,0,0,0-6.85,2.7,19.38,19.38,0,0,0-4.79,4.68c.05.54.1,1.09.2,1.63s.25,1.1.41,1.64A20,20,0,0,0,24,132.81a19,19,0,0,0,1.88,3,20.88,20.88,0,0,0,2.67,2.75q.63-.6,1.2-1.23l-.37,2.13-.7.61-.06.07h0a22.5,22.5,0,0,1-4.11,2.75,22.74,22.74,0,0,1-4.62,1.93c1.83,5.81,5.28,9.68,7.26,9.81L27,155.78c-1.39-.09-3-1.19-4.48-3.07a19.89,19.89,0,0,1-2.18-3.34,30.55,30.55,0,0,1-1.71-4.23,21.51,21.51,0,0,1-7.58.45,20.8,20.8,0,0,1-2.38-.44,13.77,13.77,0,0,1-1.55,1.6c4.37,1.63,9.32,5.12,13.08,8.54a40.58,40.58,0,0,1,4.74,5,7.41,7.41,0,0,1,1.83,4.2H25.51c0-1.07-.74-2.52-2.11-4.19a47.38,47.38,0,0,0-5.6-5.44c-4-3.34-8.41-6-12-7.14L5.4,148l-.36.23-.19.11-.26.15-.1.06-.42.22-.36.17,0,0-.12.06-.3.12,0,0h0l-.15.06-.25.09.1-1.37.29-.11.36-.16.32-.15,0,0,.37-.18-.62-.09-.37,0H3l.18-1.37h.08l.25,0,.33,0a13.27,13.27,0,0,1,2.06.43,12.84,12.84,0,0,0,1.71-1.51l-.48-.15-.12,0-.23-.09-.24-.08-.13-.06-.26-.1-.19-.08-.29-.12L5.42,144l-.08,0L5,143.81l-.36-.18,0,0-.17-.09h0L4,143.29,3.55,143l0,0,.19-1.47.3.19.32.2.33.19.3.17.17.09.3.16.58.28.25.11.29.13.3.12.3.11.31.11.29.11.78.24A12.6,12.6,0,0,0,10.1,141a13.28,13.28,0,0,0,1-3.09l.05-.27.06-.4a.43.43,0,0,0,0-.11c0-.12,0-.25,0-.37l0-.31v0l0-.2,0-.35v-.44c0-.14,0-.27,0-.41s0-.27,0-.4v-.11l0-.29,0-.21a1.36,1.36,0,0,0,0-.2l-.05-.29a5.67,5.67,0,0,0-.1-.57l0-.23c0-.23-.08-.45-.14-.67a1.89,1.89,0,0,0-.05-.23l-.05-.19h0l-.1-.35c-.06-.17-.12-.36-.18-.54l-.1-.27-.11-.27-.06-.15-.16-.37,0,0c-.05-.12-.11-.23-.16-.34-.13-.26-.26-.51-.41-.76l-.16-.27-.12-.19-.14-.23h0l-.32-.45h0l-.19-.25-.26-.32,0,0L8,126.51l-.18-.19,0,0-.12-.14-.26-.26-.3-.29-.26-.23-.05,0,.12-.54A13.38,13.38,0,0,1,11.75,133a14.51,14.51,0,0,1-2.23,11c.55.13,1.12.23,1.69.31a20.15,20.15,0,0,0,7-.36,22.54,22.54,0,0,1-.62-2.61A21.86,21.86,0,0,1,20.1,126.9c.19-.32.38-.62.58-.92,0-.35,0-.71,0-1.07A20.6,20.6,0,0,1,22,117.59a20.4,20.4,0,0,1,3.71-6.42c.59-.69,1.2-1.35,1.82-2a20.35,20.35,0,0,0-5.95-3.84c-.53-.22-1.07-.41-1.61-.58a13.84,13.84,0,0,1-.65,5.52,14.76,14.76,0,0,1-2.82,5.11,14.13,14.13,0,0,1-8.27,4.76l.15-.54h.07l.33-.07.4-.1.35-.1.18-.06h0l.24-.08.35-.13h0l.39-.16.28-.12h0c.16-.08.33-.15.49-.24h0l.23-.12.2-.11.27-.16q.38-.21.72-.45l.3-.22,0,0,.33-.24.14-.1L14,117l.22-.18.45-.38.26-.25h0l.15-.14c.05,0,.11-.1.16-.16s.32-.34.47-.51l.16-.18a5.54,5.54,0,0,0,.37-.45l.17-.23.12-.16.12-.17.16-.24,0,0,0-.07.22-.34c.07-.12.14-.23.2-.35l.11-.21.1-.18.16-.32.08-.18s0,0,0,0l.13-.29c.05-.11.1-.23.14-.34l0-.1.13-.38.1-.27a12.39,12.39,0,0,0,.69-6.29q-.39-.1-.78-.18l-.31-.06-.32,0-.32,0-.31,0-.32,0-.27,0-.64,0-.33,0H14.1l-.36,0,.55-1.39h1.26l.4,0,.39,0h.09l.24,0,.32,0,.2,0,.27,0,.15,0,.24,0,.24,0,.13,0,.49.1a14.06,14.06,0,0,0-.69-2.14,13.16,13.16,0,0,1-2-.67l-.3-.13-.23-.11,0,0,0,0L16,98.74l.25.13.34.16.58.22-.22-.33,0,0-.19-.29-.24-.32L16.29,98l.57-1.25L17,97l.11.13v0l0,0,.2.27.08.11,0,0,.23.34.26.4.05.09.16.27c0,.06.07.13.11.2l.2.37.22.46a26.1,26.1,0,0,0,6.38.54,55.7,55.7,0,0,0,7.52-.76,39.14,39.14,0,0,0,7.54-1.92C42.17,96.81,43.62,96,44.15,95ZM21,128a23.32,23.32,0,0,0-2.21,6.58,22.86,22.86,0,0,0,.09,6.57,19,19,0,0,0,.59,2.53,23.36,23.36,0,0,0,8.14-4.28,19.93,19.93,0,0,1-4.36-5.19A20.26,20.26,0,0,1,21,128Zm7.45-17.87c-.59.59-1.19,1.22-1.76,1.89a21.29,21.29,0,0,0-4.35,9,22.69,22.69,0,0,0-.36,3.5,19,19,0,0,1,11.37-6.59,26.39,26.39,0,0,0-2-4.09A22.19,22.19,0,0,0,28.43,110.08Z"/><path class="cls-2" d="M37.37,82.47a31.31,31.31,0,0,0-2.83-5.8,13,13,0,0,0-3.36-3.78l-.56-.35-.8,1.13a5.36,5.36,0,0,1,.57.34C32.52,75.45,34.7,79,36.2,83a25.25,25.25,0,0,1,1.35,5,5.37,5.37,0,0,1-.13,3.21l1.08.62a6.75,6.75,0,0,0,.27-4.15A26,26,0,0,0,37.37,82.47Z"/><path class="cls-2" d="M91.77,38.5l-.63-1.08a5.39,5.39,0,0,1-3.2.14,26.06,26.06,0,0,1-5-1.36c-4-1.5-7.5-3.68-8.94-5.81a5.36,5.36,0,0,1-.34-.57l-1.13.8c.12.2.23.38.35.56a13,13,0,0,0,3.78,3.36,31.31,31.31,0,0,0,5.8,2.83,26.69,26.69,0,0,0,5.15,1.41A6.82,6.82,0,0,0,91.77,38.5Z"/><path class="cls-2" d="M95,44.15l.62,1.07c-1,.61-2.66.64-4.58.47a33.3,33.3,0,0,1-6.72-1.57c-4.86-1.57-10.29-4-14-7a19,19,0,0,1-.62,2.13,17.57,17.57,0,0,1,1.58,1.84,21.61,21.61,0,0,1,3.42,6.79c.78-.18,1.55-.32,2.3-.44s1.52-.14,2.24-.17a21.64,21.64,0,0,1,4,.18c2.36.33,4.13,1.17,4.9,2.33-.33.22-.66.41-1,.64-.56-.83-2.07-1.47-4.21-1.75a22.44,22.44,0,0,0-7.88.42,24.52,24.52,0,0,1,.67,5c0,.83,0,1.65-.07,2.46s-.14,1.64-.28,2.45h0l0,.09c0,.31-.11.62-.17.92l-1.64,1.42q.26-.82.45-1.68a20.68,20.68,0,0,0-3.71-.91,15.93,15.93,0,0,0-3.56-.15,19.7,19.7,0,0,0-6.53,1.61,19.7,19.7,0,0,0-1.61,6.53,15.93,15.93,0,0,0,.15,3.56,21.56,21.56,0,0,0,.91,3.71q.85-.19,1.68-.45L60,75.24c-.3.07-.61.13-.92.18l-.09,0h0c-.81.13-1.64.22-2.45.28a22.33,22.33,0,0,1-2.46.06,23.82,23.82,0,0,1-5-.66A22.44,22.44,0,0,0,48.64,83c.28,2.14.92,3.65,1.75,4.21-.23.31-.42.65-.64,1-1.16-.77-2-2.54-2.33-4.9a21.68,21.68,0,0,1-.18-4c0-.72.09-1.47.17-2.24s.26-1.52.44-2.3a21.61,21.61,0,0,1-6.79-3.42,18.65,18.65,0,0,1-1.84-1.58,19,19,0,0,1-2.13.62c3,3.66,5.46,9.09,7,14a33.3,33.3,0,0,1,1.57,6.72c.17,1.92.14,3.57-.46,4.58L44.15,95a4.36,4.36,0,0,0,.43-1.92,10.1,10.1,0,0,0-.06-1.31c0-.46-.08-1-.16-1.49a39.64,39.64,0,0,0-2.12-7.51c-1.79-4.91-4.16-9.4-6.73-12.16l-.51,0-.42,0h-.64l-.48,0-.41,0h-.18l-.32,0h-.06l-.16,0-.27,0,.8-1.13.3,0,.39,0,.35,0h0l.4,0c-.16-.13-.32-.27-.48-.38l-.31-.22-.24-.15.8-1.13,0,0,0,0,.21.14.27.19a13.67,13.67,0,0,1,1.58,1.41A15.88,15.88,0,0,0,38.44,69l-.32-.37-.09-.1-.16-.19-.16-.19L37.62,68l-.17-.22-.12-.16-.19-.26-.14-.2-.06-.07-.22-.32-.22-.34,0,0-.1-.17v0l-.23-.38-.25-.45,0,0,.92-1.17.16.32.18.33c.06.11.12.22.19.33l.17.29.11.17.17.28.36.54.16.22.19.25.2.26.2.25.2.24.21.24.55.6a13.3,13.3,0,0,0,5.11-3.74l.18-.21.26-.31.07-.09c.08-.09.15-.19.23-.29l.18-.25,0,0,.11-.16.2-.3L46.3,63l.12-.2.2-.35c.06-.12.12-.24.19-.36l0-.08v0l.12-.26.09-.19a1.42,1.42,0,0,0,.08-.18l.11-.27c.08-.18.14-.36.21-.55l.07-.22c.07-.22.14-.44.2-.67l.06-.22.05-.2h0l.08-.36.12-.56.05-.28,0-.28,0-.17c0-.13,0-.26.05-.4v0l0-.37c0-.29,0-.57,0-.86v-.8h0c0-.19,0-.37,0-.55h0l0-.31-.06-.41v0c0-.12,0-.25-.07-.37l0-.25s0,0,0,0l0-.18-.09-.35-.11-.4-.11-.33,0-.07.38-.4a13.57,13.57,0,0,1,.86,4.73A14.72,14.72,0,0,1,48,60.91a13.45,13.45,0,0,1-3,5,13.83,13.83,0,0,1-4.43,3.33c.41.39.85.76,1.3,1.11a20.14,20.14,0,0,0,6.29,3.24c.22-.85.48-1.71.78-2.57a16.56,16.56,0,0,1,1.56-3.33,26.24,26.24,0,0,1,2.15-3.09,18.08,18.08,0,0,1,2.65-2.67,24.8,24.8,0,0,1,3-2.16c.31-.19.62-.36.93-.53s.34-.62.53-.93a24.8,24.8,0,0,1,2.16-3,18.08,18.08,0,0,1,2.67-2.65,27.1,27.1,0,0,1,3.09-2.15A16.82,16.82,0,0,1,71,48.93c.86-.3,1.72-.56,2.57-.78a20.14,20.14,0,0,0-3.24-6.29c-.35-.45-.72-.89-1.11-1.3A13.68,13.68,0,0,1,65.9,45a13.45,13.45,0,0,1-5,3,14.72,14.72,0,0,1-4.81.84A13.57,13.57,0,0,1,51.37,48l.4-.38.07,0,.33.11.4.11.35.09.18,0h0l.25,0,.37.07h0l.41.06.31,0h0l.55,0h.8c.29,0,.57,0,.86,0l.37,0h0l.4,0,.17,0,.28,0,.28-.05.56-.12.36-.08h0l.2-.05.22-.06.67-.2.22-.07c.19-.07.37-.13.55-.21l.27-.11.18-.08.19-.09.26-.12h0l.08,0,.36-.19.35-.2.2-.12.17-.11.3-.2.16-.11,0,0,.25-.18.29-.23.09-.07.31-.26.21-.18a13.3,13.3,0,0,0,3.74-5.11l-.6-.55-.24-.21-.24-.2-.25-.2-.26-.2-.25-.19-.22-.16-.54-.36-.28-.18-.17-.1-.29-.17-.33-.19-.33-.18-.32-.16,1.17-.92,0,0,.45.25.39.23h0l.17.1,0,0,.33.22.32.22.07.05.2.15.26.19.16.12.22.17.11.09.19.16.19.16.1.08.37.33a15.88,15.88,0,0,0,.45-2.22A13.67,13.67,0,0,1,68,34.64l-.19-.27-.14-.21,0,0,0,0,1.13-.8.15.24.22.31c.11.16.25.32.38.48,0-.13,0-.27,0-.4v0c0-.12,0-.23,0-.35l0-.39,0-.3,1.12-.8,0,.27,0,.16v.06l0,.32v.18l0,.41c0,.16,0,.32,0,.48v.64c0,.14,0,.28,0,.42l0,.51c2.75,2.57,7.24,4.94,12.15,6.73a39.64,39.64,0,0,0,7.51,2.12c.53.08,1,.13,1.49.16a8.51,8.51,0,0,0,1.31,0A4.24,4.24,0,0,0,95,44.15Zm-36.5,17a22.36,22.36,0,0,0-2.82,2.09c-.44.38-.87.78-1.28,1.19s-.75.86-1.1,1.31a20.48,20.48,0,0,0-3.24,5.72c-.29.83-.54,1.67-.75,2.48a23.15,23.15,0,0,0,9.18.37,21.09,21.09,0,0,1-1.18-6.69A19.28,19.28,0,0,1,58.54,61.12ZM73.91,49.35c-.81.21-1.64.46-2.48.75a20.7,20.7,0,0,0-5.72,3.23c-.45.36-.89.72-1.31,1.11s-.81.83-1.19,1.27a22.47,22.47,0,0,0-2.09,2.83,19.28,19.28,0,0,1,6.47-1.19,21.09,21.09,0,0,1,6.69,1.18A23.15,23.15,0,0,0,73.91,49.35Z"/><path class="cls-2" d="M95.43,29.88c.76-4.52.63-8.84-.6-11.41a5.45,5.45,0,0,0-.31-.58c-.42.18-.83.4-1.24.6.12.2.23.39.32.58,1.13,2.32,1.27,6.44.57,10.63-.67,3.79-1.78,7-3,7.72l.63,1.08A6.53,6.53,0,0,0,94.08,35,27.81,27.81,0,0,0,95.43,29.88Z"/><path class="cls-2" d="M164.53,19V17.74c-1.43,0-4-2.08-6.49-5.14a31.4,31.4,0,0,1-3.35-5,12,12,0,0,1-1.46-4.45c0-.21,0-.43,0-.66l-1.37.11c0,.22,0,.44,0,.66.23,2.87,2.27,6.61,5.18,10.1C159.29,16.12,162.3,19,164.53,19Z"/><path class="cls-2" d="M164.53,25.51v1.25a7.41,7.41,0,0,1-4.21-1.83,40.58,40.58,0,0,1-5-4.74c-3.41-3.76-6.91-8.71-8.54-13.08a13.77,13.77,0,0,1-1.6,1.55,20.8,20.8,0,0,1,.44,2.38,21.51,21.51,0,0,1-.45,7.58,30.55,30.55,0,0,1,4.23,1.71,19.89,19.89,0,0,1,3.34,2.18c1.88,1.52,3,3.09,3.07,4.48l-1.16.09c-.13-2-4-5.43-9.81-7.26a22.74,22.74,0,0,1-1.93,4.62,23,23,0,0,1-2.74,4.11v0l-.07.06c-.2.24-.4.47-.61.7l-2.13.37q.63-.57,1.23-1.2a20.88,20.88,0,0,0-2.75-2.67,19,19,0,0,0-3-1.88,20,20,0,0,0-3.18-1.25c-.54-.16-1.09-.29-1.64-.41s-1.09-.15-1.63-.2a19.38,19.38,0,0,0-4.68,4.79,19.93,19.93,0,0,0-2.7,6.85c.56.18,1.12.33,1.68.46l-2,.69c-.3-.09-.59-.2-.89-.31l-.09,0h0a23.83,23.83,0,0,1-8.4-5.22,21.06,21.06,0,0,0-2.61,3.41,21.88,21.88,0,0,0-1.69,3.21c-.83,2-1,3.62-.58,4.54l-1,.53a4.47,4.47,0,0,1-.36-2.34,10.21,10.21,0,0,1,.77-3.08,21.5,21.5,0,0,1,1.82-3.51,24.25,24.25,0,0,1,2.79-3.65,21.75,21.75,0,0,1-4.18-6.35,20.17,20.17,0,0,1-.81-2.29,13.28,13.28,0,0,1-2.14-.5,32.19,32.19,0,0,1,.26,7.67,63.88,63.88,0,0,1-1.13,7.93,32.82,32.82,0,0,1-2,6.58c-.78,1.81-1.65,3.18-2.68,3.75L95,44.15c.93-.53,1.77-2,2.53-4a39.14,39.14,0,0,0,1.92-7.54,55.7,55.7,0,0,0,.76-7.52,26.05,26.05,0,0,0-.54-6.38l-.46-.22-.37-.2-.2-.11L98.41,18,98.32,18l-.4-.26-.34-.23,0,0-.11-.08-.27-.2,0,0h0L97,17l-.21-.17L98,16.29l.24.19.32.24.29.19,0,0,.33.22c-.07-.2-.14-.39-.22-.58a3.54,3.54,0,0,1-.16-.34L98.74,16l1.25-.57,0,0,0,0,.11.23.13.3a13.16,13.16,0,0,1,.67,2,14.06,14.06,0,0,0,2.14.69l-.1-.49,0-.13,0-.24,0-.24,0-.15,0-.27,0-.2,0-.32,0-.24a.33.33,0,0,1,0-.1c0-.12,0-.25,0-.38s0-.26,0-.4V14.29l1.39-.55,0,.36v.37c0,.13,0,.25,0,.38v.54c0,.11,0,.22,0,.33s0,.43,0,.64l0,.27,0,.32,0,.31c0,.11,0,.21,0,.32l0,.32.06.31q.07.39.18.78a12.39,12.39,0,0,0,6.29-.69l.27-.1.38-.13.1,0,.34-.14.29-.13h0l.18-.08.32-.16.18-.1.21-.11.35-.2.34-.22.07,0,0,0,.24-.16.17-.12.16-.12.23-.17a5.54,5.54,0,0,0,.45-.37l.18-.16c.17-.15.35-.3.51-.47s.11-.11.16-.16l.15-.15h0l.25-.26.38-.45L117,14l.18-.23.1-.14.24-.33,0,0,.22-.3q.24-.35.45-.72l.16-.27.11-.2.12-.23h0c.09-.16.16-.33.24-.49h0l.13-.28.15-.39v0l.13-.35.08-.24v0l.06-.18.1-.35c0-.13.06-.26.1-.4s0-.22.07-.33V8.39l.54-.15a14.13,14.13,0,0,1-4.76,8.27,14.76,14.76,0,0,1-5.11,2.82,13.84,13.84,0,0,1-5.52.65c.17.54.36,1.08.58,1.61a20.35,20.35,0,0,0,3.84,5.95c.61-.62,1.27-1.23,2-1.82A20.4,20.4,0,0,1,117.59,22a20.6,20.6,0,0,1,7.32-1.34c.36,0,.72,0,1.07,0,.3-.2.6-.39.92-.58a21.86,21.86,0,0,1,14.43-2.47,22.06,22.06,0,0,1,2.61.62,20.15,20.15,0,0,0,.36-7c-.08-.57-.18-1.14-.31-1.69a14.51,14.51,0,0,1-11,2.23A13.38,13.38,0,0,1,124.79,7l.55-.12,0,.05.23.26.29.3.26.26.14.12,0,0,.19.18.29.24,0,0,.32.26.25.19h0l.45.32h0l.23.14.19.12.27.16c.25.15.5.28.76.41l.34.16,0,0,.37.16.15.06.27.11.27.1.54.18.35.09h0l.19.05.23.05c.22.06.44.1.67.14l.23,0a5.67,5.67,0,0,0,.57.1l.29.05.2,0,.21,0,.29,0h.11l.4,0h1.21l.19,0h0l.31,0,.37,0,.11,0,.4-.06.27-.05a13.28,13.28,0,0,0,3.09-1,12.6,12.6,0,0,0,2.71-1.57l-.24-.78-.11-.29-.11-.31-.11-.3-.12-.3-.13-.29L142.81,6c-.1-.19-.19-.39-.28-.58l-.16-.3L142.28,5l-.17-.29c-.06-.11-.12-.22-.19-.33l-.2-.32-.19-.3L143,3.52v0l.27.45.21.39s0,0,0,0l.1.17,0,0,.18.36a3.73,3.73,0,0,1,.16.35l.05.08.1.23.12.29.08.19.1.26.06.13.08.24.09.23,0,.12.15.48a12.84,12.84,0,0,0,1.51-1.71,13.27,13.27,0,0,1-.43-2.06l0-.33V3.16L147.24,3v.29l0,.37c0,.2.06.41.09.62l.19-.37v0l.15-.32c.05-.12.1-.24.16-.36l.11-.29,1.37-.1-.09.25-.06.15v.06l-.13.3-.06.12,0,0-.17.36-.22.42-.06.1-.15.26-.11.19L148,5.4l-.29.43c1.09,3.56,3.8,8,7.14,12a47.38,47.38,0,0,0,5.44,5.6C162,24.77,163.45,25.54,164.53,25.51ZM124.43,22a22.69,22.69,0,0,0-3.5.36,21.29,21.29,0,0,0-9,4.35c-.67.57-1.3,1.17-1.89,1.76a22.19,22.19,0,0,0,3.67,2.87,26.39,26.39,0,0,0,4.09,2A19.06,19.06,0,0,1,124.43,22Zm19.2-2.51a19,19,0,0,0-2.53-.59,22.86,22.86,0,0,0-6.57-.09A23.32,23.32,0,0,0,128,21a20.26,20.26,0,0,1,6.21,2.25,19.93,19.93,0,0,1,5.19,4.36A23.36,23.36,0,0,0,143.63,19.45Z"/><path class="cls-2" d="M172,13.36c2.91-3.49,5-7.23,5.18-10.1,0-.22,0-.44,0-.66l-1.37-.11c0,.23,0,.45,0,.66a11.83,11.83,0,0,1-1.46,4.45,31.4,31.4,0,0,1-3.35,5c-2.48,3.06-5.06,5.17-6.48,5.14V19C166.75,19,169.76,16.12,172,13.36Z"/><path class="cls-2" d="M237.28,38.5l.63-1.08c-1.25-.7-2.36-3.93-3-7.72-.69-4.19-.56-8.31.57-10.63.09-.19.2-.38.32-.58-.41-.2-.82-.42-1.24-.6-.11.19-.22.39-.31.58-1.23,2.57-1.36,6.89-.6,11.41A27.81,27.81,0,0,0,235,35,6.53,6.53,0,0,0,237.28,38.5Z"/><path class="cls-2" d="M234,44.15l-.62,1.08c-1-.58-1.9-1.95-2.68-3.76a32.82,32.82,0,0,1-2-6.58A63.88,63.88,0,0,1,227.58,27a32.19,32.19,0,0,1,.26-7.67,13.28,13.28,0,0,1-2.14.5,20.17,20.17,0,0,1-.81,2.29,21.55,21.55,0,0,1-4.18,6.35,24.25,24.25,0,0,1,2.79,3.65,21.6,21.6,0,0,1,1.83,3.51,10.48,10.48,0,0,1,.76,3.08,4.47,4.47,0,0,1-.36,2.34l-1-.53c.44-.92.25-2.56-.58-4.54a21.43,21.43,0,0,0-1.69-3.21,21.06,21.06,0,0,0-2.61-3.41,23.83,23.83,0,0,1-8.4,5.22h0l-.09,0c-.3.11-.59.22-.89.31l-2.05-.69c.56-.13,1.12-.28,1.68-.46a19.93,19.93,0,0,0-2.7-6.85,19.38,19.38,0,0,0-4.68-4.79c-.54.05-1.08.1-1.63.2s-1.1.25-1.64.41A20,20,0,0,0,196.24,24a18.91,18.91,0,0,0-3,1.88,20.35,20.35,0,0,0-2.76,2.67q.6.63,1.23,1.2l-2.12-.37c-.22-.23-.42-.46-.62-.7l-.07-.06v0a23,23,0,0,1-2.75-4.11,22.74,22.74,0,0,1-1.93-4.62c-5.81,1.83-9.68,5.28-9.8,7.26L173.27,27c.09-1.39,1.2-3,3.07-4.48a20.75,20.75,0,0,1,3.34-2.18,31.06,31.06,0,0,1,4.23-1.71,21.51,21.51,0,0,1-.45-7.58,20.8,20.8,0,0,1,.44-2.38,13.77,13.77,0,0,1-1.6-1.55c-1.63,4.37-5.12,9.32-8.54,13.08a40.58,40.58,0,0,1-5,4.74,7.41,7.41,0,0,1-4.2,1.83V25.51c1.07,0,2.52-.74,4.19-2.11a47.38,47.38,0,0,0,5.44-5.6c3.34-4,6.05-8.41,7.14-12L181,5.4,180.79,5l-.12-.19-.15-.26-.06-.1-.22-.42-.17-.36,0,0L180,3.55l-.12-.3v0l0,0L179.78,3l-.09-.25,1.37.1.11.29.16.36.15.32,0,0,.18.37c0-.21.07-.42.09-.62l0-.37,0-.29,1.36.18v.08l0,.25,0,.33a13.27,13.27,0,0,1-.43,2.06,13.59,13.59,0,0,0,1.51,1.71l.15-.48,0-.12.08-.23.09-.24,0-.13.1-.26.08-.19.12-.29.11-.23,0-.08a3.73,3.73,0,0,1,.16-.35l.18-.36,0,0,.09-.17s0,0,0,0l.21-.39.27-.45,0,0,1.47.19-.19.3-.2.32c-.07.11-.13.22-.19.33l-.17.3-.09.17-.16.3c-.09.19-.18.39-.28.58l-.11.25-.12.29-.13.3-.11.3-.11.31c0,.09-.07.19-.11.29l-.24.78A12.6,12.6,0,0,0,188,10.1a13.28,13.28,0,0,0,3.09,1l.27.05.4.06.11,0,.37,0,.31,0h0l.2,0,.36,0H194l.41,0h.1l.29,0,.21,0,.2,0,.29-.05a5.67,5.67,0,0,0,.57-.1l.23,0c.23,0,.45-.08.67-.14l.23-.05.19-.05h0l.35-.09.55-.18.26-.1.27-.11.16-.06.37-.16,0,0,.33-.16c.26-.13.52-.26.76-.41l.27-.16.2-.12.22-.14h0c.15-.1.31-.21.45-.32h0l.25-.19.33-.26,0,0,.29-.24.19-.18s0,0,0,0l.14-.12.26-.26.29-.3.23-.26.05-.05.54.12A13.38,13.38,0,0,1,196,11.75a14.51,14.51,0,0,1-10.95-2.23c-.12.55-.23,1.12-.3,1.69a19.92,19.92,0,0,0,.35,7,23,23,0,0,1,2.61-.62,23.67,23.67,0,0,1,7.42,0,24,24,0,0,1,7,2.48l.91.58c.36,0,.71,0,1.08,0a21.82,21.82,0,0,1,13.74,5c.68.59,1.34,1.2,2,1.82a20.53,20.53,0,0,0,3.83-5.95c.22-.53.41-1.07.58-1.61a13.84,13.84,0,0,1-5.52-.65,14.76,14.76,0,0,1-5.11-2.82,14.13,14.13,0,0,1-4.76-8.27l.54.15v.07c0,.11.05.22.07.33l.11.4a3.57,3.57,0,0,0,.1.35l.05.18a0,0,0,0,1,0,0l.08.24.13.35v0l.16.39.12.28h0l.24.49h0l.12.23.11.2.16.27q.21.38.45.72l.22.3,0,0,.24.33.1.14.18.23.18.22.38.45.25.26h0l.14.15.16.16c.17.17.34.32.51.47l.18.16c.15.13.29.25.45.37l.23.17.16.12.17.12.24.16,0,0,.07,0,.34.22.35.2.21.11.18.1.32.16.18.08h0l.29.13.34.14.11,0,.37.13.27.1a12.39,12.39,0,0,0,6.29.69q.1-.39.18-.78l.06-.31,0-.32.05-.32,0-.31,0-.32,0-.27c0-.21,0-.43.05-.64v-.87c0-.13,0-.25,0-.38v-.73l1.38.55v1.26c0,.14,0,.27,0,.4l0,.39s0,.06,0,.09l0,.24,0,.32,0,.2,0,.27,0,.15,0,.24,0,.24,0,.13-.1.49a14.06,14.06,0,0,0,2.14-.69,13.16,13.16,0,0,1,.67-2l.13-.3.11-.23,0,0,0,0,1.26.57-.14.25-.15.34a5.83,5.83,0,0,0-.23.58l.34-.22,0,0a2.9,2.9,0,0,0,.29-.19l.32-.24.24-.19,1.25.57-.21.17-.12.11h0l0,0-.26.2-.12.08,0,0-.33.23-.41.26-.09.05-.27.16-.19.11-.38.2-.46.22a26.05,26.05,0,0,0-.54,6.38,55.7,55.7,0,0,0,.76,7.52,38.36,38.36,0,0,0,1.93,7.54C232.24,42.17,233.08,43.62,234,44.15ZM201.1,21a23.37,23.37,0,0,0-6.57-2.21,22.92,22.92,0,0,0-6.58.09,19.38,19.38,0,0,0-2.53.59,23.36,23.36,0,0,0,4.28,8.14,19.93,19.93,0,0,1,5.19-4.36A20.26,20.26,0,0,1,201.1,21ZM219,28.43c-.59-.59-1.22-1.19-1.89-1.76a18.78,18.78,0,0,0-5.66-3.34,18.53,18.53,0,0,0-3.3-1,22.69,22.69,0,0,0-3.5-.36,19,19,0,0,1,6.59,11.37,26.39,26.39,0,0,0,4.09-2A21.78,21.78,0,0,0,219,28.43Z"/><path class="cls-2" d="M246.58,37.37a31.31,31.31,0,0,0,5.8-2.83,13,13,0,0,0,3.78-3.36c.12-.18.23-.36.35-.56l-1.13-.8a5.36,5.36,0,0,1-.34.57c-1.44,2.13-4.95,4.31-8.94,5.81a25.36,25.36,0,0,1-5,1.35,5.37,5.37,0,0,1-3.21-.13l-.63,1.08a6.75,6.75,0,0,0,4.15.27A26,26,0,0,0,246.58,37.37Z"/><path class="cls-2" d="M290.56,91.77l1.08-.63a5.23,5.23,0,0,1-.14-3.2,25.25,25.25,0,0,1,1.35-5c1.5-4,3.68-7.5,5.81-8.94a5.36,5.36,0,0,1,.57-.34l-.8-1.13-.56.35a13,13,0,0,0-3.36,3.78,31.31,31.31,0,0,0-2.83,5.8,26,26,0,0,0-1.4,5.15A6.67,6.67,0,0,0,290.56,91.77Z"/><path class="cls-2" d="M284.91,95l-1.08.62c-.61-1-.64-2.66-.47-4.58a33.38,33.38,0,0,1,1.58-6.72c1.57-4.86,4-10.29,7-14a19,19,0,0,1-2.13-.62A17.57,17.57,0,0,1,288,71.37a21.61,21.61,0,0,1-6.79,3.42c.18.78.32,1.55.44,2.3s.14,1.52.17,2.24a21.64,21.64,0,0,1-.18,4c-.33,2.36-1.17,4.13-2.33,4.9-.21-.33-.41-.67-.64-1,.83-.56,1.47-2.07,1.76-4.21a22.71,22.71,0,0,0-.43-7.88,23.82,23.82,0,0,1-5,.66,22.09,22.09,0,0,1-2.45-.06c-.82-.06-1.65-.14-2.45-.28h0l-.09,0-.92-.17-1.42-1.64q.82.26,1.68.45a20.68,20.68,0,0,0,.91-3.71,15.93,15.93,0,0,0,.15-3.56,19.46,19.46,0,0,0-1.61-6.53,19.64,19.64,0,0,0-6.53-1.61,15.93,15.93,0,0,0-3.56.15,21.56,21.56,0,0,0-3.71.91q.19.85.45,1.68L253.81,60c-.07-.3-.13-.61-.18-.92l0-.09h0c-.13-.81-.22-1.64-.28-2.45s-.08-1.63-.06-2.46a23.82,23.82,0,0,1,.66-5,22.44,22.44,0,0,0-7.88-.42c-2.14.28-3.65.92-4.21,1.75-.31-.23-.65-.42-1-.64.78-1.16,2.55-2,4.9-2.33a21.68,21.68,0,0,1,4-.18c.72,0,1.47.09,2.24.17s1.52.26,2.3.44a21.82,21.82,0,0,1,3.42-6.79,18.65,18.65,0,0,1,1.58-1.84,19,19,0,0,1-.62-2.13c-3.66,3-9.09,5.46-13.95,7A33.3,33.3,0,0,1,238,45.69c-1.92.17-3.57.14-4.58-.46l.62-1.08a4.36,4.36,0,0,0,1.92.43,10.1,10.1,0,0,0,1.31-.06c.46,0,1-.08,1.49-.16a39.64,39.64,0,0,0,7.51-2.12c4.91-1.79,9.4-4.16,12.16-6.73l0-.51,0-.42v-.64l0-.48c0-.14,0-.27,0-.41v0l0-.14,0-.32v-.06l0-.16.05-.27,1.12.8-.05.3,0,.39,0,.35v0l0,.4c.13-.16.27-.32.39-.48l.21-.31.16-.24,1.12.8,0,0,0,0-.14.21-.19.27a12.8,12.8,0,0,1-1.41,1.58,15.88,15.88,0,0,0,.45,2.22l.37-.32.1-.09.19-.16.19-.16.11-.09.22-.17.16-.12.26-.19.2-.14.08-.06.31-.22.34-.22,0,0,.17-.1h0l.38-.23.45-.25,0,0,1.17.92-.32.16-.33.18-.33.19-.29.17-.17.11-.28.17-.54.36-.21.16-.26.19-.25.2-.25.2-.25.2-.24.21-.6.55a13.3,13.3,0,0,0,3.74,5.11l.21.18.31.26.09.07.29.23.26.18,0,0,.16.11.3.2.17.11.2.12.35.2.36.19.08,0h0l.26.12.19.09.19.08.26.11c.18.08.37.14.55.21l.22.07.67.2.22.06.2.05h0l.36.08.56.12.28.05.28,0,.17,0,.4.05h0l.37,0c.29,0,.57,0,.86,0h.8l.55,0h0l.31,0,.42-.06h0l.37-.07.25,0h0l.18,0,.35-.09.4-.11.33-.11.07,0,.4.38a13.55,13.55,0,0,1-4.72.86,14.63,14.63,0,0,1-4.81-.84,13.41,13.41,0,0,1-5-3,13.83,13.83,0,0,1-3.33-4.43c-.39.41-.76.85-1.11,1.3a20.14,20.14,0,0,0-3.24,6.29c.85.22,1.71.48,2.57.78a16.9,16.9,0,0,1,3.34,1.56,27,27,0,0,1,3.08,2.15,18.08,18.08,0,0,1,2.67,2.65,24.8,24.8,0,0,1,2.16,3c.19.31.36.62.53.93s.62.34.93.53a24.8,24.8,0,0,1,3,2.16,18.08,18.08,0,0,1,2.65,2.67,25.88,25.88,0,0,1,2.15,3.09A16.82,16.82,0,0,1,280.12,71c.3.86.56,1.72.78,2.57a20.14,20.14,0,0,0,6.29-3.24c.45-.35.89-.72,1.3-1.11A15,15,0,0,1,281,60.91a15,15,0,0,1-.84-4.81,13.57,13.57,0,0,1,.86-4.73l.38.4,0,.07-.11.33-.11.4-.09.35,0,.18s0,0,0,0l-.05.25-.07.37v0l-.06.41,0,.31h0c0,.18,0,.37,0,.55h0v.8c0,.29,0,.57,0,.86l0,.37v0l0,.4,0,.17c0,.09,0,.19,0,.28l.05.28.12.56.08.36h0l.05.2.06.22c.06.23.13.45.2.67l.07.22c.07.19.13.37.21.55l.11.27a1.42,1.42,0,0,0,.08.18l.09.19.12.26v0l0,.08.19.36a2.43,2.43,0,0,0,.2.35l.12.2.1.17.2.3.11.16,0,0,.19.25a3.15,3.15,0,0,0,.22.29l.07.09.26.31.18.21a13.3,13.3,0,0,0,5.11,3.74l.55-.6.21-.24.2-.24.2-.25.2-.26.19-.25.16-.22.36-.54.18-.28.1-.17.17-.29c.07-.11.13-.22.19-.33l.18-.33.16-.32.92,1.17,0,0-.25.45-.23.39h0l-.1.17,0,0-.22.33-.22.32-.05.07-.15.21-.19.25-.12.16-.17.22-.09.11-.16.19-.16.19-.08.1-.33.37a15.88,15.88,0,0,0,2.22.45A13.67,13.67,0,0,1,294.41,68l.27-.19.21-.14,0,0,0,0,.8,1.13-.24.15-.3.22a5.85,5.85,0,0,0-.49.38l.4,0h0l.35,0,.39,0,.3,0,.8,1.12-.27,0-.16,0h-.06l-.32,0H296l-.4,0-.48,0h-.64l-.43,0-.51,0c-2.57,2.75-4.93,7.24-6.73,12.15a39.64,39.64,0,0,0-2.12,7.51c-.08.53-.13,1-.16,1.49a8.51,8.51,0,0,0,0,1.31A4.1,4.1,0,0,0,284.91,95Zm-17-36.5a22.36,22.36,0,0,0-2.09-2.82c-.38-.44-.78-.87-1.18-1.28s-.87-.75-1.32-1.1a20.34,20.34,0,0,0-5.72-3.24c-.83-.29-1.67-.54-2.48-.75a23.34,23.34,0,0,0-.37,9.18,21.09,21.09,0,0,1,6.69-1.18A19.28,19.28,0,0,1,267.93,58.54ZM279.7,73.91c-.21-.81-.46-1.64-.75-2.48a20.7,20.7,0,0,0-3.23-5.72c-.36-.45-.72-.89-1.11-1.31s-.83-.81-1.27-1.19a22.47,22.47,0,0,0-2.83-2.09,19.28,19.28,0,0,1,1.19,6.47,21.36,21.36,0,0,1-1.17,6.69A23.11,23.11,0,0,0,279.7,73.91Z"/><path class="cls-2" d="M299.17,95.43c4.52.76,8.84.63,11.41-.6a5.45,5.45,0,0,0,.58-.31c-.18-.42-.4-.83-.6-1.24a5.57,5.57,0,0,1-.58.32c-2.32,1.13-6.43,1.27-10.63.57-3.79-.67-7-1.78-7.71-3l-1.08.63A6.46,6.46,0,0,0,294,94.08,27.81,27.81,0,0,0,299.17,95.43Z"/><path class="cls-2" d="M310.07,164.53h1.24c0-1.43,2.08-4,5.14-6.49a31.4,31.4,0,0,1,5-3.35,12,12,0,0,1,4.45-1.46c.21,0,.43,0,.66,0l-.1-1.37-.67,0c-2.87.23-6.61,2.27-10.1,5.18C312.94,159.29,310,162.3,310.07,164.53Z"/><path class="cls-2" d="M303.54,164.53h-1.25a7.41,7.41,0,0,1,1.83-4.21,40.58,40.58,0,0,1,4.74-5c3.76-3.41,8.72-6.91,13.08-8.54a13.77,13.77,0,0,1-1.55-1.6,20.8,20.8,0,0,1-2.38.44,21.53,21.53,0,0,1-7.58-.45,29.36,29.36,0,0,1-1.71,4.23,19.89,19.89,0,0,1-2.18,3.34c-1.52,1.88-3.09,3-4.48,3.07l-.08-1.16c2-.13,5.42-4,7.25-9.81a22.74,22.74,0,0,1-4.62-1.93,23.34,23.34,0,0,1-4.11-2.74h0l-.07-.07-.7-.61-.37-2.13q.57.63,1.2,1.23a20.27,20.27,0,0,0,2.67-2.75,18.8,18.8,0,0,0,3.13-6.18c.16-.54.29-1.09.41-1.64s.15-1.09.2-1.63a19.38,19.38,0,0,0-4.79-4.68,19.93,19.93,0,0,0-6.85-2.7c-.18.56-.33,1.12-.46,1.68l-.69-2c.09-.3.2-.59.31-.89l0-.09h0a24,24,0,0,1,5.22-8.4,21.06,21.06,0,0,0-3.41-2.61,21.88,21.88,0,0,0-3.21-1.69c-2-.83-3.62-1-4.54-.58l-.53-1a4.47,4.47,0,0,1,2.34-.36,10.14,10.14,0,0,1,3.08.77,21.5,21.5,0,0,1,3.51,1.82,24.25,24.25,0,0,1,3.65,2.79,21.89,21.89,0,0,1,6.35-4.18,20.17,20.17,0,0,1,2.29-.81,13.28,13.28,0,0,1,.5-2.14,32.19,32.19,0,0,1-7.67.26,63.45,63.45,0,0,1-7.92-1.13,33.13,33.13,0,0,1-6.59-2c-1.81-.78-3.17-1.65-3.75-2.68l1.08-.62c.52.93,2,1.77,4,2.53a39.14,39.14,0,0,0,7.54,1.92,55.7,55.7,0,0,0,7.52.76,26.05,26.05,0,0,0,6.38-.54l.22-.46.2-.37c0-.07.07-.14.11-.2l.16-.27.05-.09.26-.4.23-.34,0,0,.08-.11.2-.27,0,0v0L312,97l.17-.21.57,1.25-.19.24-.23.32c-.07.1-.14.19-.2.29l0,0-.22.33c.2-.07.4-.14.58-.22l.34-.16.25-.13.57,1.25,0,0,0,0-.23.11-.3.13a13.16,13.16,0,0,1-2,.67,14.06,14.06,0,0,0-.69,2.14l.49-.1.13,0,.24,0,.24,0,.15,0,.27,0,.2,0,.32,0,.24,0a.33.33,0,0,1,.1,0l.38,0,.4,0h1.26l.55,1.39-.35,0h-1.3l-.33,0-.64,0-.27,0-.31,0-.32,0-.32,0-.31,0-.31.06c-.27,0-.53.11-.79.18a12.39,12.39,0,0,0,.69,6.29l.1.27.13.38,0,.1c.05.12.09.23.14.34l.13.29s0,0,0,0l.09.18.15.32.1.18.11.21.2.35.22.34.05.07v0l.16.24.12.17.12.16.17.23c.12.16.25.31.37.45l.16.18c.15.17.31.35.47.51l.16.16.15.15h0l.27.25.44.38.22.18.23.18.14.1.33.24,0,0,.3.22q.35.24.72.45l.27.16.2.11.23.12h0c.16.09.33.16.49.24h0l.28.13.39.15h0l.35.13.24.08h0l.18.06.35.1.4.1.33.07h.07l.15.54a14.13,14.13,0,0,1-8.27-4.76,14.76,14.76,0,0,1-2.82-5.11,13.84,13.84,0,0,1-.65-5.52c-.54.17-1.08.36-1.61.58a20.48,20.48,0,0,0-5.95,3.84c.62.61,1.23,1.27,1.82,2a20.4,20.4,0,0,1,3.71,6.42,20.84,20.84,0,0,1,1.35,7.32c0,.36,0,.72,0,1.07.2.3.39.6.58.92a21.86,21.86,0,0,1,2.47,14.43,22.06,22.06,0,0,1-.62,2.61,20.17,20.17,0,0,0,7,.36c.57-.08,1.14-.18,1.69-.31a14.51,14.51,0,0,1-2.23-11,13.42,13.42,0,0,1,4.78-8.25l.12.55-.05,0-.26.23-.3.29-.26.26-.12.14,0,0-.17.19-.25.29,0,0-.26.32-.19.25h0l-.32.45h0l-.14.23-.12.19-.16.27c-.15.25-.28.5-.41.76l-.16.34,0,0-.16.37-.06.15-.11.27-.09.27c-.07.18-.13.37-.18.54l-.1.35h0l-.05.19a1.89,1.89,0,0,0,0,.23c-.06.22-.1.44-.14.67l0,.23c0,.19-.07.38-.1.57s0,.2-.05.29,0,.13,0,.2l0,.21,0,.29v.11l0,.4c0,.14,0,.27,0,.41v.8l0,.19v0l0,.31c0,.12,0,.25,0,.37a.43.43,0,0,0,0,.11l.06.4,0,.27a13.77,13.77,0,0,0,1,3.09,12.6,12.6,0,0,0,1.57,2.71l.78-.24.3-.11.3-.11.3-.11.3-.12.29-.13.25-.11.58-.28.3-.16.18-.09.29-.17.33-.19.32-.2.3-.19.19,1.48h0l-.45.27-.39.21h0l-.18.1-.05,0-.35.18-.36.16-.08.05-.23.1-.29.12-.19.08-.26.1-.13.06-.23.08-.24.09-.12,0-.47.15a12.16,12.16,0,0,0,1.7,1.51,13.15,13.15,0,0,1,2.07-.43l.32,0h.33l.18,1.37h-.29l-.37,0-.62.09.37.19h0l.32.15.36.16.29.11.1,1.37-.25-.09-.15-.06h-.05l-.3-.13-.13-.06,0,0-.37-.17-.42-.22-.1-.06-.26-.15-.19-.11-.36-.23-.43-.29c-3.56,1.09-8,3.8-12,7.14a47.38,47.38,0,0,0-5.6,5.44C304.28,162,303.51,163.45,303.54,164.53Zm3.55-40.1a22.69,22.69,0,0,0-.36-3.5,19.65,19.65,0,0,0-1-3.3,19.2,19.2,0,0,0-3.34-5.66c-.58-.67-1.18-1.3-1.77-1.89a22.19,22.19,0,0,0-2.87,3.67,25.48,25.48,0,0,0-2,4.09A19.06,19.06,0,0,1,307.09,124.43Zm2.51,19.2a19,19,0,0,0,.59-2.53,22.86,22.86,0,0,0,.09-6.57,23.32,23.32,0,0,0-2.21-6.58,19.16,19.16,0,0,1-6.61,11.4A23.36,23.36,0,0,0,309.6,143.63Z"/></g></g></svg>