<svg xmlns="http://www.w3.org/2000/svg" viewBox="0 0 249.27 249.27"><defs><style>.cls-1{fill:#f4f4f4;}.cls-2{fill:#8e704c;}.cls-3{fill:none;stroke:#d6d6d6;stroke-miterlimit:10;}.cls-4{fill:#ededed;}</style></defs><g id="圖層_2" data-name="圖層 2"><g id="Plate"><circle class="cls-1" cx="124.64" cy="124.64" r="122.64"/><path class="cls-2" d="M124.64,2A122.64,122.64,0,1,1,2,124.64,122.63,122.63,0,0,1,124.64,2m0-2A124.63,124.63,0,0,0,36.51,212.77,124.63,124.63,0,0,0,212.77,36.51,123.79,123.79,0,0,0,124.64,0Z"/><path class="cls-2" d="M124.64,10.32A114.32,114.32,0,1,1,10.32,124.64,114.32,114.32,0,0,1,124.64,10.32m0-1A115.32,115.32,0,0,0,43.09,206.18,115.32,115.32,0,1,0,206.18,43.09,114.56,114.56,0,0,0,124.64,9.32Z"/><path class="cls-2" d="M124.64,42.76a81.88,81.88,0,1,1-81.88,81.88,81.88,81.88,0,0,1,81.88-81.88m0-1a82.88,82.88,0,1,0,82.88,82.88,83,83,0,0,0-82.88-82.88Z"/><path class="cls-3" d="M85.83,216.41a102.29,102.29,0,0,1-14.16-7.25,96.36,96.36,0,0,1-12.28-8.94A94.38,94.38,0,0,1,49,189.83"/><path class="cls-3" d="M189.07,200.13a106,106,0,0,1-9.64,7.21"/><path class="cls-3" d="M221.25,99.47a92.24,92.24,0,0,1,2.32,12.31,95.77,95.77,0,0,1,.63,12.86,93.61,93.61,0,0,1-2.95,25.16,92.9,92.9,0,0,1-3.87,11.68,94.44,94.44,0,0,1-5.28,11,98.18,98.18,0,0,1-6.56,10.15"/><path class="cls-3" d="M212.11,76.84a96,96,0,0,1,5.28,11"/><path class="cls-3" d="M97.91,28.46a93.62,93.62,0,0,1,24.49-3.62,94.54,94.54,0,0,1,12.15.6,99.55,99.55,0,0,1,11.91,2.09A103.15,103.15,0,0,1,169,35.87a104.54,104.54,0,0,1,20,13.28,103.69,103.69,0,0,1,8.75,8.28"/><path class="cls-3" d="M33.89,165.68a100.35,100.35,0,0,1-4.72-13.28,102.73,102.73,0,0,1-2.84-13.76,104.8,104.8,0,0,1,0-28,102.73,102.73,0,0,1,2.84-13.76,100,100,0,0,1,4.72-13.29A97.62,97.62,0,0,1,40.5,71a95.32,95.32,0,0,1,18.89-22,97.34,97.34,0,0,1,12.28-8.94"/><path class="cls-4" d="M124.19,65.9a55.92,55.92,0,0,1,6.35.36,59.22,59.22,0,0,1,13.8,3.3,61.63,61.63,0,0,1,23.43,15.53,58.33,58.33,0,0,1,8.41,11.42,55,55,0,0,1,7.12,28.13,55.1,55.1,0,0,1-1.74,14.81,55.75,55.75,0,0,1-5.38,13.32,58.93,58.93,0,0,1-8.41,11.42,61.57,61.57,0,0,1-23.44,15.53,59,59,0,0,1-13.79,3.3,58.33,58.33,0,0,1-6.35.36,55.06,55.06,0,0,1-22.32-4.74,58.59,58.59,0,0,1-15.56-9.52,56,56,0,0,1-11.12-12.94A58.6,58.6,0,0,1,68.52,141a61.28,61.28,0,0,1,0-32.69,58.6,58.6,0,0,1,6.67-15.2A56,56,0,0,1,86.31,80.16a58.52,58.52,0,0,1,15.56-9.53,54.73,54.73,0,0,1,22.32-4.73m0-1a57,57,0,0,0-8.16.59,56.11,56.11,0,0,0-14.56,4.23A59.57,59.57,0,0,0,85.66,79.4,57,57,0,0,0,74.34,92.56,59.34,59.34,0,0,0,67.56,108a62.17,62.17,0,0,0,0,33.22,59.42,59.42,0,0,0,6.78,15.46,57.3,57.3,0,0,0,11.32,13.17,59.75,59.75,0,0,0,15.82,9.69,56.14,56.14,0,0,0,22.71,4.81,58.29,58.29,0,0,0,6.46-.37,59.87,59.87,0,0,0,14-3.35,62.74,62.74,0,0,0,23.82-15.79,59.71,59.71,0,0,0,8.55-11.61,55.94,55.94,0,0,0,7.25-28.64A55.93,55.93,0,0,0,177.05,96,60.08,60.08,0,0,0,168.5,84.4a62.56,62.56,0,0,0-23.82-15.78,59.37,59.37,0,0,0-14-3.35,56,56,0,0,0-6.46-.37Z"/></g></g></svg>