<svg xmlns="http://www.w3.org/2000/svg" viewBox="0 0 178.27 128.15"><defs><style>.cls-1{fill:#8e704c;}.cls-2{fill:#211e1a;}.cls-3{fill:#fefefd;}.cls-4{fill:#cbcaca;}.cls-5{fill:#f2cc3b;}</style></defs><g id="圖層_2" data-name="圖層 2"><g id="restaurant"><path class="cls-1" d="M147.28,23.82a32,32,0,0,0-8.76,1.2,2.22,2.22,0,0,1-.57.09c-.71,0-1-.52-1.45-1.12-4.77-6.84-10.09-13.22-17.08-17.85A35.87,35.87,0,0,0,99.21,0,48,48,0,0,0,84.52,2.49C77.1,4.89,70.66,9.05,64.45,13.62a4.84,4.84,0,0,1-2.72,1.13c-5.62.25-11.23.51-16.83.91a64.79,64.79,0,0,0-17.35,3.18C15.29,23.25,7.73,32.43,3.13,44.09-2.49,58.31-.31,72,7.79,84.67c6.8,10.63,15.73,18.06,28.81,18.06.78,0,1.57,0,2.37-.08h.18c.93,0,.94.55,1,1.3q.18,8.43.4,16.85c0,1,.1,2,.16,3l.43.3.41.19c10.55,3,21.27,3.85,32.06,3.85,4.14,0,8.3-.12,12.46-.29,13.31-.52,26.55-1.63,39.61-4.41a71.91,71.91,0,0,0,12.57-3.79c1.3-.54,2-1.19,1.72-2.61-.81-6.56-.95-13.21-2.27-19.72-.19-.91.08-1.18.75-1.18h.34c.79.08,1.58.08,2.38.1h1c8.74,0,16.58-2.65,23.14-8.61,9.26-8.41,13.15-19.19,13-31.49C177.93,34.1,162.32,23.82,147.28,23.82Zm-22.91,93.76c-11,2.35-22.91,3.67-38.59,4.29-4.93.19-8.7.28-12.22.28A127.93,127.93,0,0,1,52.9,120.7a36.39,36.39,0,0,1,8.93-3.61l2.42-.77a141,141,0,0,1,24.07-3.12c2.85-.1,5.37-.15,7.71-.15,12,0,21.18,1.33,29.37,4.3Zm5.6-5a1.94,1.94,0,0,1-.68-.17c-10.77-4.27-21.95-5.36-33.26-5.36-2.64,0-5.28.06-7.92.15a147.83,147.83,0,0,0-25.41,3.32c-4.48,1.47-9.09,2.57-13.09,5.16-.69-.5-.47-1.13-.49-1.64-.23-6.41-.33-12.8,0-19.21.13-2.29,1.22-3.46,3.1-4.43,5.36-2.77,11.13-4.21,17-5.35a111.58,111.58,0,0,1,21.4-1.93c2.32,0,4.64.06,7,.16a4.61,4.61,0,0,1,1,.28A77.5,77.5,0,0,1,121,87.38c3.8,1.27,6.12,3.59,7,7.64a157.44,157.44,0,0,1,2.39,16.43C130.44,112.12,130.45,112.58,130,112.58Zm32.51-33.77a22.43,22.43,0,0,1-13.3,7.82.66.66,0,0,1-.55.3.94.94,0,0,1-.36-.08l-1.68.22a19.14,19.14,0,0,1-4,.4,35.31,35.31,0,0,1-9.4-1.57,29.93,29.93,0,0,1-6.6-2.7c5.61-4.41,6.85-10.66,7.46-17.25-5.59,7.86-12.14,13.8-22.28,13.8a29.27,29.27,0,0,1-3.55-.22c4.3-4.57,6-9.84,6.69-15.42a34.39,34.39,0,0,0-1.52-16.49c.18,9.09-.49,17.92-7.84,24.56-4.3,3.87-9.93,6.24-14.16,6.24l-.74,0C93.9,72.12,94.28,67,91.71,61A22.05,22.05,0,0,1,91,66.35c-2,7.31-6.8,11.69-14.31,12.89a79.46,79.46,0,0,1-12.29,1.22A35.89,35.89,0,0,1,58.2,80C49.48,78.45,43.77,72.68,39,65.76c-.95-1.37-1.7-2.88-2.63-4.49-1,1.2-.19,2.12,0,3A30.26,30.26,0,0,0,47.45,83.4c1,.78.88,1.36.36,2.31-3,5.51-7.71,8.47-13,8.47a17.1,17.1,0,0,1-8.7-2.57c-9.24-5.47-14.45-13.94-17-24.18-.35-1.38-.48-2.82-.71-4.23C6.74,48.82,15.34,33.06,28,27.54c5.82-2.54,12.1-3,18.33-3.54,2-.18,4.09-.26,6.66-.41a36,36,0,0,1-12.26,7.89,2.38,2.38,0,0,0,1.09.26A15.29,15.29,0,0,0,44,31.31c1.06-.17,2.12-.41,3.16-.68,9.75-2.47,18.41-7.12,26.5-13,7-5.11,14.68-8.72,23.53-9.29.7-.05,1.4-.07,2.08-.07a26.92,26.92,0,0,1,18.54,7.14,81.69,81.69,0,0,1,13.51,16.2c.84,1.27.24,1.95-.41,2.78-2.94,3.77-5,7.9-5.16,12.76,0,.33-.16.72.26,1a32.4,32.4,0,0,1,10.12-12,21.49,21.49,0,0,1,12.26-3.68c9.33,0,19.1,5.59,21.38,18.44A32.9,32.9,0,0,1,162.48,78.81Z"/><path class="cls-2" d="M125.4,117.35l-1,.23c-11,2.35-22.91,3.67-38.59,4.29-4.93.19-8.7.28-12.22.28A127.93,127.93,0,0,1,52.9,120.7a36.39,36.39,0,0,1,8.93-3.61l2.42-.77a141,141,0,0,1,24.07-3.12c2.85-.1,5.37-.15,7.71-.15C108.06,113.05,117.21,114.38,125.4,117.35Z"/><path class="cls-3" d="M8.4,63.2C6.74,48.82,15.34,33.06,28,27.54c5.81-2.54,12.09-3,18.33-3.54,2-.18,4.08-.26,6.65-.41a35.91,35.91,0,0,1-12.26,7.89c1.19.6,2.23,0,3.27-.17s2.12-.41,3.16-.68c9.75-2.47,18.41-7.12,26.5-13,7-5.11,14.68-8.72,23.53-9.29a27.08,27.08,0,0,1,20.62,7.07,81.69,81.69,0,0,1,13.51,16.2c.84,1.27.24,1.95-.41,2.78-2.94,3.77-5,7.9-5.16,12.76,0,.33-.16.72.26,1a32.4,32.4,0,0,1,10.12-12c10.47-7.36,30.27-4.27,33.65,14.76a32.94,32.94,0,0,1-7.29,27.85,22.43,22.43,0,0,1-13.3,7.82c-.47-.58-.75-.42-.91.22l-1.68.22c-.43-.72-1.15-.42-1.76-.49-6.2-.75-9.31-4.81-7.05-10.62,1-2.65,2.67-4.93,3.82-7.49a27.35,27.35,0,0,0,2.78-12.27c-.08-2.37-.38-2.5-2.47-1.42-.76.39-1.48.88-2.25,1.27-4.84,2.38-9.64,4.87-15.28,4.63-3-.12-5-2-5-5a52.32,52.32,0,0,0-1.87-15.11,39.47,39.47,0,0,0-4.46-9.85c-.3,1.09-.51,1.76-.67,2.44A51.78,51.78,0,0,1,108,45.72a9.91,9.91,0,0,1-3.38,4.12c-2.62,1.59-6.18.42-8.49-2.88A38.32,38.32,0,0,1,91,36.82c-.55,2.64-.92,4.87-1.49,7C87.85,50,85,55.26,79.12,58.58A44.75,44.75,0,0,1,64.4,63.8,21.65,21.65,0,0,1,41,52.28a25.84,25.84,0,0,1-2.47-16.94c.3-1.53-.09-1.44-1.36-1.19-4.69.92-8.71,3.31-12.75,5.65A30.15,30.15,0,0,0,9.71,58.64C9.3,60.15,9.66,61.93,8.4,63.2Z"/><path class="cls-4" d="M8.4,63.2c1.26-1.27.9-3.05,1.31-4.56A30.15,30.15,0,0,1,24.43,39.8c4-2.34,8.06-4.73,12.75-5.65,1.27-.25,1.66-.34,1.36,1.19A25.84,25.84,0,0,0,41,52.28,21.65,21.65,0,0,0,64.4,63.8a44.75,44.75,0,0,0,14.72-5.22C85,55.26,87.85,50,89.47,43.86c.57-2.17.94-4.4,1.49-7A38.32,38.32,0,0,0,96.1,47c2.31,3.3,5.87,4.47,8.49,2.88A9.91,9.91,0,0,0,108,45.72a51.78,51.78,0,0,0,4.43-12.57c.16-.68.37-1.35.67-2.44a39.47,39.47,0,0,1,4.46,9.85,52.32,52.32,0,0,1,1.87,15.11c-.06,3,2,4.89,5,5,5.64.24,10.44-2.25,15.28-4.63.77-.39,1.49-.88,2.25-1.27,2.09-1.08,2.39-1,2.47,1.42a27.35,27.35,0,0,1-2.78,12.27c-1.15,2.56-2.8,4.84-3.82,7.49-2.26,5.81.85,9.87,7.05,10.62.61.07,1.33-.23,1.76.49-4.57,1-9,0-13.36-1.17a29.93,29.93,0,0,1-6.6-2.7c5.61-4.41,6.85-10.66,7.46-17.25-6.21,8.75-13.62,15.11-25.83,13.58,4.3-4.57,6-9.84,6.69-15.42a34.51,34.51,0,0,0-1.51-16.49c.17,9.09-.5,17.92-7.85,24.56C101,76.28,95,78.7,90.69,78.4,93.9,72.12,94.28,67,91.71,61A22.59,22.59,0,0,1,91,66.35C88.94,73.66,84.19,78,76.68,79.24c-6.12,1-12.3,1.79-18.48.72C49.48,78.45,43.77,72.68,39,65.76c-.95-1.37-1.7-2.88-2.63-4.49-1,1.2-.19,2.12,0,3A30.26,30.26,0,0,0,47.45,83.4c1,.78.88,1.36.36,2.31-4.58,8.43-13.21,10.91-21.69,5.9-9.24-5.47-14.45-13.94-17-24.18C8.77,66.05,8.63,64.61,8.4,63.2Z"/><path class="cls-3" d="M98.58,83.56A77.5,77.5,0,0,1,121,87.38c3.8,1.27,6.12,3.59,7,7.64a157.44,157.44,0,0,1,2.39,16.43c.09.89.09,1.43-1.08,1-13.28-5.26-27.17-5.7-41.18-5.21a147.83,147.83,0,0,0-25.41,3.32c.14-1.57.19-3.15.45-4.7.87-5.25,3.27-9.44,8.23-11.91,4.44-2.22,9.19-3.15,14-3.91,2.41-.38,4.87-.19,7.25-.83-7.11-.43-14.18-1.4-21.75-.3,1.31-1.29,2.58-1,3.64-1.21,6.09-1.31,12.12-2.91,18.39-3.36C94.79,84.17,96.81,84.57,98.58,83.56Z"/><path class="cls-4" d="M98.58,83.56c-1.77,1-3.79.61-5.64.74-6.27.45-12.3,2-18.39,3.36-1.06.23-2.33-.08-3.64,1.21,7.57-1.1,14.64-.13,21.75.3-2.38.64-4.84.45-7.25.83-4.84.76-9.59,1.69-14,3.91-5,2.47-7.36,6.66-8.23,11.91-.26,1.55-.31,3.13-.45,4.7-4.48,1.47-9.09,2.57-13.09,5.16-.69-.5-.47-1.13-.49-1.64-.22-6.41-.33-12.8,0-19.21.13-2.29,1.22-3.46,3.1-4.43,5.36-2.77,11.13-4.21,17-5.35a119.81,119.81,0,0,1,28.36-1.77A4.61,4.61,0,0,1,98.58,83.56Z"/><path class="cls-4" d="M148.27,86.85c.16-.64.44-.8.91-.22A.7.7,0,0,1,148.27,86.85Z"/><path class="cls-5" d="M41.5,124.66l-.41-.55.41.19A2.16,2.16,0,0,0,41.5,124.66Z"/></g></g></svg>